<?xml version="1.0" encoding="UTF-8" standalone="no"?>
<!-- Created with Inkscape (http://www.inkscape.org/) -->

<svg
   xmlns:dc="http://purl.org/dc/elements/1.1/"
   xmlns:cc="http://creativecommons.org/ns#"
   xmlns:rdf="http://www.w3.org/1999/02/22-rdf-syntax-ns#"
   xmlns:svg="http://www.w3.org/2000/svg"
   xmlns="http://www.w3.org/2000/svg"
   xmlns:sodipodi="http://sodipodi.sourceforge.net/DTD/sodipodi-0.dtd"
   xmlns:inkscape="http://www.inkscape.org/namespaces/inkscape"
   width="708.29315"
   height="708.27338"
   id="svg3032"
   version="1.1"
   inkscape:version="0.48.4 r9939"
   sodipodi:docname="Nuovo documento 2">
  <defs
     id="defs3034" />
  <sodipodi:namedview
     id="base"
     pagecolor="#ffffff"
     bordercolor="#666666"
     borderopacity="1.0"
     inkscape:pageopacity="0.0"
     inkscape:pageshadow="2"
     inkscape:zoom="0.35"
     inkscape:cx="354.86086"
     inkscape:cy="314.13668"
     inkscape:document-units="px"
     inkscape:current-layer="layer1"
     showgrid="false"
     fit-margin-top="0"
     fit-margin-left="0"
     fit-margin-right="0"
     fit-margin-bottom="0"
     inkscape:window-width="1280"
     inkscape:window-height="962"
     inkscape:window-x="-8"
     inkscape:window-y="-8"
     inkscape:window-maximized="1" />
  <metadata
     id="metadata3037">
    <rdf:RDF>
      <cc:Work
         rdf:about="">
        <dc:format>image/svg+xml</dc:format>
        <dc:type
           rdf:resource="http://purl.org/dc/dcmitype/StillImage" />
        <dc:title></dc:title>
      </cc:Work>
    </rdf:RDF>
  </metadata>
  <g
     inkscape:label="Livello 1"
     inkscape:groupmode="layer"
     id="layer1"
     transform="translate(-20.13914,-138.22551)">
    <path
       style="fill:#000000"
       d="m 341.50437,845.00923 c -14.5649,-1.4414 -22.024,-2.5566 -37.4076,-5.5931 l -9.8951,-1.9531 -3.1897,3.0915 c -7.3885,7.1613 -17.3449,3.9154 -19.4565,-6.3431 -0.5485,-2.6648 -1.527,-3.19 -14.1685,-7.6061 -42.3005,-14.7766 -83.4517,-38.7071 -116.46109,-67.725 -8.9313,-7.8514 -8.9349,-7.8534 -12.4664,-6.6771 -4.961,1.6524 -8.48261,0.6869 -11.96601,-3.2804 -3.1601,-3.5991 -3.7733,-7.1886 -2.0173,-11.8074 0.9018,-2.3718 0.2101,-3.4875 -8.2541,-13.3151 -30.161413,-35.0197 -54.786013,-78.4403 -68.324313,-120.4764 -2.4372,-7.5676 -3.1217,-8.75 -5.0649,-8.75 -3.6096,0 -7.3806,-2.1761 -8.9159,-5.145 -2.722,-5.2639 -1.2788,-12.4103 3.0835,-15.2686 l 2.2002,-1.4417 -1.7999,-8.3223 c -9.4671,-43.7744 -9.689,-96.181 -0.5975,-141.1069 l 2.2813,-11.2734 -3.2963,-3.0798 c -2.7972,-2.6134 -3.2963,-3.7709 -3.2963,-7.6443 0,-5.923 3.5529,-10.463 8.8511,-11.3102 l 3.6687,-0.5867 3.8383,-11.1605 c 15.8253,-46.0163 38.4289,-84.5411 72.672413,-123.8608 3.6109,-4.1462 3.9549,-4.9586 2.9191,-6.8941 -1.6522,-3.0871 -0.5326,-9.6563 2.1284,-12.4888 2.7335,-2.9097 8.28601,-4.0956 12.22131,-2.6102 2.7984,1.0563 3.3911,0.7006 14.55889,-8.7391 36.2021,-30.6 79.036,-54.7525 120.7902,-68.1092 6.946,-2.222 7.1654,-2.3928 7.7473,-6.0314 0.86,-5.3782 5.3611,-8.9271 11.3223,-8.9271 3.8735,0 5.0309,0.4991 7.6448,3.2967 l 3.0801,3.2968 10.8119,-2.2323 c 44.18411,-9.1225 97.73661,-8.9313 141.37001,0.5048 l 8.1249,1.757 3.1509,-3.3115 c 2.7088,-2.8469 3.8137,-3.3084 7.8751,-3.2893 6.6402,0.031 11.2243,4.1994 11.2243,10.2059 0,2.085 1.0183,2.6876 8.75,5.1777 43.2266,13.9217 88.6627,39.9149 122.9927,70.3619 7.017,6.2234 8.5314,7.1559 10.1843,6.2714 5.0705,-2.7137 13.0277,0.023 15.1808,5.2212 1.3927,3.3622 1.4277,7.9604 0.079,10.3706 -0.7571,1.3528 0.6738,3.5332 7.0756,10.7824 28.8024,32.6147 53.0025,74.2098 67.7692,116.4818 4.5342,12.98 4.8798,13.6071 7.831,14.2107 4.7578,0.9731 7.844,3.4748 9.1433,7.412 1.5247,4.6198 0.5952,8.2135 -3.1247,12.0812 l -2.9806,3.0989 1.9945,9.9011 c 9.3903,46.6171 9.3936,94.794 0.01,139.9799 l -2.0931,10.0788 3.043,3.0431 c 5.0693,5.0693 5.3597,10.6136 0.8316,15.8778 -1.418,1.6486 -3.7601,2.9127 -6.1092,3.2975 l -3.8096,0.624 -3.7421,11 c -15.0687,44.2952 -37.7976,83.9309 -67.9074,118.4201 -7.1292,8.166 -8.8466,10.7017 -7.9668,11.7619 1.4677,1.7684 1.4383,8.3484 -0.05,11.1289 -0.6444,1.204 -2.2954,2.9254 -3.669,3.8254 -2.9127,1.9086 -9.7607,2.1659 -11.8345,0.4448 -1.1684,-0.9698 -2.6801,-0.064 -8.1171,4.8632 -33.6413,30.4871 -76.8426,55.6742 -121.9806,71.1169 l -11,3.7633 -0.624,3.781 c -0.3822,2.3159 -1.6599,4.6721 -3.2975,6.0806 -5.2436,4.5104 -10.809,4.2373 -15.8228,-0.7765 l -2.988,-2.988 -10.1338,2.0258 c -33.5314,6.7029 -70.4134,8.6753 -102.62151,5.4879 z m 55.98761,-1.4769 c 16.3355,-1.1512 37.7959,-4.1029 48.9865,-6.7378 7.4551,-1.7553 7.4889,-1.7783 8.092,-5.4884 1.5493,-9.5317 13.221,-12.9188 19.3632,-5.6192 3.0826,3.6635 3.5534,3.6034 20.4156,-2.6073 42.1367,-15.52 83.5298,-40.2109 113.547,-67.7307 6.2536,-5.7334 6.7955,-6.5332 5.75,-8.4867 -2.2893,-4.2775 -1.4292,-9.2134 2.2457,-12.8883 3.637,-3.637 8.6051,-4.538 12.7601,-2.3143 2.4787,1.3265 3.9721,0.064 14.2909,-12.0857 28.0586,-33.036 52.2235,-76.1258 65.0737,-116.0365 l 2.7485,-8.5365 -3.0854,-3.0854 c -1.697,-1.6969 -3.3822,-4.268 -3.745,-5.7135 -1.5154,-6.0378 2.8111,-12.4966 9.0503,-13.5107 3.6682,-0.5963 3.95,-0.9028 5.1717,-5.624 2.4633,-9.5198 6.2912,-37.0738 7.4316,-53.4934 1.8763,-27.0173 -0.1482,-58.0598 -5.6829,-87.1368 l -2.5957,-13.6367 -3.7013,-0.5919 c -4.2029,-0.6721 -8.6251,-4.7233 -9.6403,-8.8315 -0.9275,-3.7536 1.1472,-9.3619 4.3175,-11.6714 l 2.662,-1.9391 -2.3402,-7.3463 c -13.0313,-40.9079 -37.6509,-84.61 -67.0696,-119.055 l -10,-11.7085 -3.5964,1.5026 c -3.5917,1.5007 -5.8819,1.3085 -10.2848,-0.863 -4.5063,-2.2225 -6.6219,-10.1311 -4.0139,-15.0043 1.0322,-1.9287 0.5942,-2.6523 -4.25,-7.0213 -33.8443,-30.5239 -76.3381,-55.4733 -120.262,-70.6095 -6.5236,-2.2481 -12.1851,-4.0874 -12.581,-4.0874 -0.3959,0 -1.2953,1.0753 -1.9987,2.3895 -4.7134,8.8071 -20.0591,4.317 -20.0591,-5.8692 0,-2.7465 0.036,-2.7322 -13.5879,-5.421 -24.3012,-4.7962 -33.476,-5.5584 -66.9121,-5.5589 -33.37991,-5e-4 -44.87431,1.0242 -70.40191,6.2765 l -8.4019,1.7287 -1.3599,4.6639 c -1.7675,6.0616 -5.2043,8.7905 -11.0712,8.7905 -3.7874,0 -5.0076,-0.5426 -8.0398,-3.5747 l -3.5747,-3.5747 -10.5753,3.6891 c -45.0701,15.7222 -87.2019,40.3877 -121.56869,71.1707 -4.9647,4.447 -5.629,5.4372 -4.5335,6.7572 1.9175,2.3104 1.7425,8.7912 -0.3224,11.9427 -3.2588,4.9735 -11.1729,6.6632 -15.44021,3.2965 -0.9606,-0.7578 -2.6187,0.4665 -6.5,4.7997 -31.161213,34.7892 -56.215713,77.627 -71.136213,121.6277 l -3.606,10.6342 3.5159,3.5158 c 3.0188,3.0188 3.5158,4.1771 3.5158,8.1928 0,3.8084 -0.5292,5.2061 -2.8495,7.5265 -1.5673,1.5672 -4.4882,3.1569 -6.491,3.5326 -4.3464,0.8154 -4.5176,1.2942 -8.0943,22.6301 -3.9201,23.3838 -4.8923,38.5259 -4.2521,66.2255 0.5523,23.8967 1.7437,36.5458 5.2377,55.6084 2.6626,14.5267 3.2096,16 5.9407,16 10.2123,0 14.7218,15.3367 5.898,20.0591 -1.3142,0.7034 -2.3895,1.6028 -2.3895,1.9987 0,0.3959 1.8393,6.0574 4.0874,12.581 14.7717,42.8662 40.5276,86.8036 70.199613,119.755 4.7648,5.2915 5.5256,5.7769 7.4443,4.75 9.13471,-4.8887 19.86091,4.7165 15.88721,14.2268 l -1.4697,3.5174 7.1756,6.4024 c 32.86799,29.3264 75.66959,54.333 117.80759,68.8283 l 12.632,4.3454 2.9657,-3.1748 c 3.3374,-3.5726 6.9592,-4.8302 11.0203,-3.8264 4.1569,1.0275 8.2093,5.4307 8.8846,9.6536 l 0.5919,3.7013 13.6367,2.5645 c 32.0495,6.0272 58.89991,7.7069 89.13681,5.5761 z m -79.55561,-56.9177 c -1.1682,-0.4731 -2.6322,-2.5797 -3.3914,-4.8802 l -1.3359,-4.0477 -9.4587,0.3093 -9.4586,0.3093 -1.8851,4.2104 c -1.3439,3.0017 -2.3918,4.112 -3.6499,3.8674 -1.9029,-0.37 -2.0555,-4.6081 -0.911,-25.3092 0.9892,-17.8904 1.995,-23.5 4.2136,-23.5 0.7879,0 1.4326,-0.4982 1.4326,-1.107 0,-0.6088 -0.675,-0.848 -1.5,-0.5314 -1.178,0.4521 -1.5,-0.2762 -1.5,-3.393 0,-2.1827 0.3375,-3.976 0.75,-3.9851 0.4125,-0.01 5.1548,-0.1374 10.5385,-0.2852 5.3836,-0.1478 10.2253,10e-4 10.7593,0.3312 0.5339,0.33 1.793,2.9347 2.7979,5.7883 1.0049,2.8536 2.1258,5.487 2.4907,5.8519 0.365,0.365 0.6636,2.0602 0.6636,3.7671 0,1.7068 0.9251,6.4418 2.0558,10.522 2.0815,7.5112 2.3463,8.9967 3.8403,21.5412 1.233,10.3524 -0.3859,12.9973 -6.4517,10.5407 z m -6.6643,-16.8621 c 0.3135,-0.9541 -0.4775,-1.232 -2.846,-1 -1.804,0.1768 -3.4754,0.916 -3.7142,1.6427 -0.3135,0.9542 0.4775,1.2321 2.846,1 1.804,-0.1767 3.4754,-0.9159 3.7142,-1.6427 z m -12.7801,-0.7376 c 0,-0.2426 -0.45,-0.441 -1,-0.441 -0.55,0 -1,0.4765 -1,1.059 0,0.5825 0.45,0.7809 1,0.441 0.55,-0.3399 1,-0.8165 1,-1.059 z m 11.5435,-11.7955 c -0.3818,-3.9301 -1.5351,-9.058 -2.5627,-11.3955 -1.6342,-3.7174 -2.2669,-4.25 -5.0484,-4.25 l -3.1801,0 0.4727,5.6997 c 0.4168,5.0259 -0.1711,10.0681 -1.8037,15.469 -0.6123,2.0255 1.0994,2.4571 7.8409,1.9768 l 4.9756,-0.3546 -0.6943,-7.1454 z m 6.4565,-3.2045 c 0,-0.2426 -0.7016,-0.441 -1.559,-0.441 -0.8575,0 -1.2764,0.4573 -0.9309,1.0163 0.5708,0.9236 2.4899,0.4801 2.4899,-0.5753 z m -22,-5.441 c 0,-0.55 -0.45,-1 -1,-1 -0.55,0 -1,0.45 -1,1 0,0.55 0.45,1 1,1 0.55,0 1,-0.45 1,-1 z m 2,-9.559 c 0,-0.8575 -0.4573,-1.2764 -1.0163,-0.9309 -0.559,0.3454 -0.7574,1.047 -0.441,1.559 0.8572,1.387 1.4573,1.1284 1.4573,-0.6281 z m 7.7708,-1.2535 c 0.4611,-1.3832 -3.3783,-1.6316 -4.218,-0.2729 -0.5974,0.9665 1.2989,2.0772 2.8847,1.6896 0.5156,-0.1261 1.1156,-0.7636 1.3333,-1.4167 z m 5.7292,0.8125 c 0.3399,-0.55 -0.3351,-1 -1.5,-1 -1.1649,0 -1.8399,0.45 -1.5,1 0.3399,0.55 1.0149,1 1.5,1 0.4851,0 1.1601,-0.45 1.5,-1 z m -1.8084,-5.7908 c -0.9946,-0.2081 -2.557,-0.091 -3.472,0.26 -1.392,0.5342 -1.4321,0.7814 -0.2455,1.5148 0.8567,0.5294 2.2313,0.4265 3.472,-0.26 1.8875,-1.0445 1.9074,-1.1672 0.2455,-1.5148 z m -12.065,-2.414 c 0.3341,-0.5407 -0.4062,-0.8168 -1.6873,-0.6293 -1.2554,0.1837 -2.4561,0.8612 -2.6681,1.5054 -0.4569,1.3886 3.4402,0.6046 4.3554,-0.8761 z m -24.2161,51.4548 c -0.9652,-2.6125 -2.0786,-5.2 -2.4742,-5.75 -0.3956,-0.55 -2.5911,-4.5899 -4.8788,-8.9776 -6.4821,-12.4323 -9.2773,-14.4945 -10.538,-7.7747 -0.3867,2.0612 -1.2243,4.0862 -1.8613,4.5 -0.8512,0.5529 -0.7986,0.9842 0.1986,1.6273 0.9462,0.6102 1.0218,1.082 0.25,1.559 -1.5037,0.9293 -1.4035,4.2997 0.1432,4.819 0.9719,0.3264 0.9266,1.0267 -0.2038,3.1484 -0.9845,1.8478 -1.1133,2.9498 -0.399,3.4136 0.5801,0.3768 1.2697,1.8456 1.5324,3.2641 0.4572,2.4683 0.264,2.5889 -4.4969,2.8061 l -4.9746,0.227 0.5664,-4.8061 c 0.3116,-2.6434 0.1767,-6.8854 -0.2997,-9.4268 -0.4763,-2.5414 -1.0031,-13.1164 -1.1704,-23.5 l -0.3044,-18.8793 4.5,-0.6759 c 7.7934,-1.1705 25.3524,-0.8738 27.0867,0.4577 2.7424,2.1056 3.7528,5.093 3.9965,11.8165 0.2287,6.3068 0.118,6.6339 -3.4568,10.2086 -2.0312,2.0312 -4.4012,3.6931 -5.2667,3.6931 -0.8789,0 -1.3364,0.5519 -1.0363,1.25 0.2956,0.6875 2.6375,6.2 5.2042,12.25 2.5667,6.05 5.073,11.4275 5.5696,11.95 1.5772,1.6596 0.9772,4.3845 -1.3197,5.9933 -3.4616,2.4245 -4.4802,1.9137 -6.367,-3.1933 z m 4.6933,-2.5462 c -1.2835,-1.2835 -2.5851,-0.2915 -1.6348,1.246 0.368,0.5955 1.1273,0.7997 1.6872,0.4536 0.683,-0.4221 0.6658,-0.9814 -0.052,-1.6996 z m -9.4826,-25.8999 c 0.3383,-0.5474 -0.5984,-0.8174 -2.1877,-0.6306 -1.5286,0.1797 -2.9443,0.8302 -3.146,1.4456 -0.445,1.3574 4.4537,0.6089 5.3337,-0.815 z m -1.91,-4.6043 c 2.0469,-1.3008 4.3657,-8.0451 3.6907,-10.7344 -0.3476,-1.3849 -1.5172,-2.9917 -2.5991,-3.5708 -2.5565,-1.3681 -19.8028,-2.273 -19.8028,-1.039 0,1.5843 3.1759,2.2435 4.703,0.9761 2.5615,-2.1259 3.7012,1.0993 3.3192,9.3932 -0.094,2.0486 0.1137,4.1861 0.4622,4.75 0.7356,1.1903 8.4411,1.3598 10.2268,0.2249 z m 11.2888,-5.1996 c 0,-0.55 -1.3766,-1 -3.059,-1 -1.7847,0 -2.8016,0.4166 -2.441,1 0.3399,0.55 1.7165,1 3.059,1 1.3426,0 2.441,-0.45 2.441,-1 z m 0,-10.0449 c 0,-0.4569 -0.9,-0.763 -2,-0.6802 -2.0069,0.1512 -2.5169,0.8748 -1.4022,1.9895 0.7775,0.7776 3.4022,-0.2325 3.4022,-1.3093 z m 69.00001,52.338 c -1.375,-0.239 -2.95,-0.9936 -3.50001,-1.6767 -0.55,-0.6832 -2.4625,-2.0984 -4.25,-3.1449 -1.7875,-1.0465 -3.25,-2.4541 -3.25,-3.1281 0,-2.488 2.2173,-2.4648 5.8625,0.061 5.99331,4.1534 7.41181,3.6032 10.06151,-3.9025 1.4145,-4.0064 2.0502,-7.469 1.6581,-9.031 -0.7371,-2.9369 -5.9543,-6.4603 -9.5821,-6.4712 -3.79261,-0.011 -8.85341,-3.5493 -9.61111,-6.719 -0.3655,-1.5295 -1.0745,-3.3034 -1.5753,-3.942 -0.5603,-0.7143 -0.5073,-1.4103 0.1378,-1.809 0.5767,-0.3564 1.0486,-3.2387 1.0486,-6.405 0,-5.3871 0.2409,-5.9734 3.75,-9.1248 5.0484,-4.534 11.17291,-4.8205 16.03481,-0.7502 1.8066,1.5125 4.114,2.75 5.1276,2.75 2.8409,0 4.3546,2.5079 3.5966,5.959 -0.3674,1.6726 -1.0685,3.041 -1.558,3.041 -1.5065,0 -8.3172,-4.1186 -9.5114,-5.7517 -1.691,-2.3126 -6.2524,-0.8424 -7.0328,2.2669 -1.47881,5.8922 3.458,12.541 12.4991,16.8334 5.4336,2.5797 6.7036,4.9267 7.4677,13.8007 0.5358,6.2228 0.4482,6.6169 -1.3647,6.1428 -1.1016,-0.2881 -2.7056,0.2618 -3.7186,1.2748 -1.7085,1.7084 -1.646,1.7542 1.5276,1.1195 3.0786,-0.6157 3.2616,-0.5059 2.6273,1.5759 -1.1079,3.6363 -3.2965,5.4628 -7.9496,6.6345 -2.4097,0.6068 -4.7445,1.0419 -5.1884,0.967 -0.444,-0.075 -1.9322,-0.3317 -3.3072,-0.5707 z m 8.4472,-3.2077 c 0.3109,-0.503 0,-1.1048 -0.691,-1.3372 -1.8572,-0.6249 -4.8189,0.3413 -4.1859,1.3655 0.7181,1.162 4.1536,1.1421 4.8769,-0.028 z m -4.9992,-27.9107 c -3.1091,-0.3843 -4.4625,0.5802 -2.5085,1.7879 0.8174,0.5052 2.1487,0.3809 3.2605,-0.3044 1.7398,-1.0725 1.6841,-1.1823 -0.752,-1.4835 z m -9.94801,-10.7782 c 1.9266,-1.4834 1.8928,-1.5281 -0.9229,-1.2182 -1.6076,0.1769 -3.1076,0.8842 -3.3333,1.5717 -0.563,1.7145 1.8282,1.5159 4.2562,-0.3535 z m 9.50001,-11.3965 c 0,-0.55 -0.9,-1 -2,-1 -1.1,0 -2,0.45 -2,1 0,0.55 0.9,1 2,1 1.1,0 2,-0.45 2,-1 z m 136.4266,53.0933 c -0.2646,-0.2646 -2.1847,-0.3806 -4.2668,-0.2577 -3.7609,0.2219 -8.1598,-2.2685 -8.1598,-4.6196 0,-0.5771 -0.497,-1.215 -1.1045,-1.4175 -0.7609,-0.2536 -1.1313,-7.6689 -1.1904,-23.8334 -0.077,-21.0501 0.1003,-23.7488 1.7239,-26.2219 1.2636,-1.9246 2.6039,-2.7249 4.4405,-2.6511 1.4468,0.058 9.2375,-0.1611 17.3127,-0.4872 l 14.6822,-0.5928 2.1143,2.6879 c 2.02,2.568 2.1086,3.6945 1.9872,25.244 -0.1346,23.8633 -0.7207,28.0101 -4.2898,30.3487 -2.1265,1.3933 -22.1091,2.9409 -23.2495,1.8006 z m 22.1323,-3.6675 c 1.8735,-1.5194 1.854,-1.5547 -0.5589,-1.0137 -1.375,0.3083 -3.7375,0.5667 -5.25,0.5742 -1.5125,0.01 -2.75,0.4637 -2.75,1.0137 0,1.5896 6.4219,1.1588 8.5589,-0.5742 z m -4.7889,-24.2042 c 0.1631,-12.856 -0.1269,-22.0199 -0.7326,-23.1517 -0.8862,-1.6559 -2.0647,-1.8405 -10.163,-1.5915 -7.5148,0.231 -9.3375,0.5976 -10.145,2.0406 -0.5556,0.9928 -0.884,8.3414 -0.754,16.87 0.1267,8.311 0.1561,17.8962 0.065,21.3005 l -0.1649,6.1894 4.3121,0.3106 c 2.3716,0.1707 7.2371,0.085 10.8121,-0.1895 l 6.5,-0.5 0.27,-21.2784 z m -23.9472,16.6637 c -0.2252,-2.3506 -0.891,-3.4767 -2.2025,-3.7254 -1.6706,-0.3169 -1.7996,0.071 -1.1592,3.4842 0.3962,2.1123 0.9554,4.2208 1.2426,4.6854 1.0565,1.7095 2.4324,-1.1757 2.1191,-4.4442 z m 32.1772,-17.8853 c 0,-0.55 -0.45,-1 -1,-1 -0.55,0 -1,0.45 -1,1 0,0.55 0.45,1 1,1 0.55,0 1,-0.45 1,-1 z m -31.5,-1 c 0.3399,-0.55 -0.083,-1 -0.941,-1 -0.8574,0 -1.559,0.45 -1.559,1 0,0.55 0.4234,1 0.941,1 0.5175,0 1.2191,-0.45 1.559,-1 z m -2.5,-7 c 0,-0.55 -0.45,-1 -1,-1 -0.55,0 -1,0.45 -1,1 0,0.55 0.45,1 1,1 0.55,0 1,-0.45 1,-1 z m 35,-7.5696 c 0,-1.0423 -0.7295,-1.4622 -2.1717,-1.25 -3.2015,0.4711 -3.5443,2.8196 -0.4116,2.8196 1.6805,0 2.5833,-0.5485 2.5833,-1.5696 z m -2,-6.4304 c 0,-0.55 -0.9,-1 -2,-1 -1.1,0 -2,0.45 -2,1 0,0.55 0.9,1 2,1 1.1,0 2,-0.45 2,-1 z m -28.2449,-5.7653 c 0.3761,-1.1284 -1.0729,-1.0491 -3.9994,0.219 -0.9593,0.4157 -1.5075,1.1389 -1.2181,1.6071 0.6549,1.0596 4.7312,-0.3671 5.2175,-1.8261 z m 21.6631,2.1583 c 2.4122,-0.9256 1.8853,-2.393 -0.8592,-2.393 -2.5092,0 -3.9986,1.2271 -2.8651,2.3605 0.7987,0.7988 1.7068,0.8067 3.7243,0.033 z m -92.4182,53.6289 -2.5,-0.614 -0.043,-27.9539 c -0.024,-15.3747 0.067,-28.214 0.2026,-28.5317 0.1352,-0.3178 2.2922,-0.1029 4.7933,0.4773 l 4.5475,1.0551 0.1783,6.0226 c 0.098,3.3125 0.073,6.9227 -0.056,8.0227 -0.4477,3.8268 -0.3862,11.0739 0.195,23 0.8114,16.6468 -0.5828,20.1757 -7.3176,18.5219 z m 4,-4.5809 c 0,-0.8575 -0.45,-1.2809 -1,-0.941 -0.55,0.3399 -1,1.0415 -1,1.559 0,0.5175 0.45,0.941 1,0.941 0.55,0 1,-0.7016 1,-1.559 z m -43.5844,2.6269 c -2.0151,-0.8517 -2.0762,-1.4715 -1.8356,-18.6345 0.1368,-9.7644 -0.1339,-18.7602 -0.6017,-19.9906 -0.4679,-1.2304 -0.561,-2.5268 -0.2069,-2.8808 0.354,-0.3541 0.5126,-4.4361 0.3524,-9.0712 l -0.2913,-8.4274 14.5569,0.4187 c 8.0063,0.2303 15.4888,0.9175 16.6279,1.5271 1.7566,0.9401 2.0462,1.9722 1.9082,6.7996 -0.09,3.1301 -0.06,9.2168 0.067,13.5259 0.2273,7.7679 0.2006,7.8594 -3.1314,10.7094 -1.8484,1.581 -4.4857,2.9274 -5.8607,2.9919 -1.375,0.064 -4.525,0.1954 -7,0.2907 l -4.5,0.1733 -0.8232,10.9899 c -0.4528,6.0444 -0.9356,11.1022 -1.0729,11.2395 -0.845,0.8451 -6.4424,1.0764 -8.1883,0.3385 z m 5.5844,-20.0679 c 0,-0.55 -0.45,-1 -1,-1 -0.55,0 -1,0.45 -1,1 0,0.55 0.45,1 1,1 0.55,0 1,-0.45 1,-1 z m 16.2471,-8.8526 c 0.4109,-0.4079 1.0305,-5.4454 1.3768,-11.1945 0.7916,-13.1409 0.1073,-14.0828 -10.2894,-14.1619 l -6.8345,-0.052 0.1812,2.8805 c 0.1,1.5843 0.4849,6.0305 0.856,9.8805 0.3712,3.85 0.6296,8.4355 0.5742,10.1899 -0.094,2.974 0.1528,3.2154 3.6439,3.5647 4.4707,0.4473 9.4558,-0.079 10.4918,-1.1072 z m 5.059,-1.7869 c 0.3518,-0.3517 0.4123,-1.0071 0.1347,-1.4563 -0.6235,-1.0089 -3.4408,-0.024 -3.4408,1.2028 0,1.0261 2.3531,1.2065 3.3061,0.2535 z m -22.3061,-1.3605 c 0,-0.55 -0.4234,-1 -0.941,-1 -0.5175,0 -1.2191,0.45 -1.559,1 -0.3399,0.55 0.083,1 0.941,1 0.8574,0 1.559,-0.45 1.559,-1 z m 22,-9.059 c 0,-0.5176 -0.45,-0.941 -1,-0.941 -0.55,0 -1,0.7015 -1,1.559 0,0.8575 0.45,1.2809 1,0.941 0.55,-0.3399 1,-1.0415 1,-1.559 z m 0.601,-7.3944 c -0.6945,-2.7674 -2.601,-3.5036 -2.601,-1.0044 0,1.5661 2.1929,4.5486 2.8701,3.9035 0.2035,-0.1939 0.082,-1.4985 -0.2691,-2.8991 z m 27.649,46.7911 c -2.7439,-1.1072 -0.4432,-9.3377 2.6102,-9.3377 1.3955,0 1.436,-1.0909 0.1646,-4.4349 -0.5364,-1.4108 -1.6614,-2.5651 -2.5,-2.5651 -0.8387,0 -1.5248,-0.45 -1.5248,-1 0,-0.55 0.675,-1 1.5,-1 0.825,0 1.5,-0.45 1.5,-1 0,-0.55 -0.6664,-1 -1.4809,-1 -2.1148,0 -2.504,-2.6256 -2.897,-19.544 l -0.3494,-15.0439 3.6136,-0.1067 c 1.9876,-0.059 9.6254,-0.3262 16.9729,-0.5944 13.3426,-0.487 13.3629,-0.4843 16.2444,2.1507 5.3051,4.8514 4.9086,17.9346 -0.6541,21.5794 -3.2649,2.1392 -3.1007,3.5377 0.7915,6.7417 3.1838,2.621 3.258,2.8641 3.2153,10.5448 -0.055,9.9395 -1.5614,13.8434 -5.6571,14.6626 -3.6056,0.7211 -29.7398,0.6776 -31.5492,-0.053 z m 25.75,-2.2307 c 0,-1.1663 -2.9208,-2.274 -4.0902,-1.5512 -1.7625,1.0892 -0.881,2.4442 1.5902,2.4442 1.375,0 2.5,-0.4019 2.5,-0.893 z m -17.0854,-1.6883 c 0.2303,-0.2303 0.1397,-0.6978 -0.2014,-1.0388 -0.9472,-0.9472 -5.7132,0.5106 -5.7132,1.7475 0,0.9935 4.786,0.42 5.9146,-0.7087 z m 8.5941,-2.8859 c 5.438,-0.6528 7.7115,-2.2359 9.5359,-6.6404 1.8374,-4.4361 -1.1337,-10.6534 -5.4382,-11.38 -7.0601,-1.1918 -10.6324,-1.186 -11.6324,0.019 -1.3292,1.6016 -0.4676,16.8042 0.9798,17.2866 0.5822,0.1941 0.7613,0.834 0.3979,1.422 -0.3634,0.588 -0.228,0.8016 0.301,0.4748 0.5289,-0.3269 3.1641,-0.8588 5.856,-1.1819 z m 16.2026,-2.1517 c 0.2322,-0.7061 -0.5689,-0.9398 -2.1717,-0.6334 -1.3968,0.267 -2.5396,0.9143 -2.5396,1.4384 0,1.31 4.2548,0.583 4.7113,-0.805 z m -0.7113,-6.6311 c 0,-1.1711 -1.4568,-0.8798 -1.875,0.375 -0.2062,0.6187 0.1313,0.9562 0.75,0.75 0.6188,-0.2063 1.125,-0.7125 1.125,-1.125 z m 2,-4.75 c 0,-0.55 -0.9,-1 -2,-1 -1.1,0 -2,0.45 -2,1 0,0.55 0.9,1 2,1 1.1,0 2,-0.45 2,-1 z m -8,-8 c 0,-0.55 -0.45,-1 -1,-1 -0.55,0 -1,0.45 -1,1 0,0.55 0.45,1 1,1 0.55,0 1,-0.45 1,-1 z m -24,-4.5 c 0,-0.825 -0.45,-1.5 -1,-1.5 -0.55,0 -1,0.675 -1,1.5 0,0.825 0.45,1.5 1,1.5 0.55,0 1,-0.675 1,-1.5 z m 21.0787,-4.1223 c 0.8683,-0.7578 2.294,-1.3777 3.1683,-1.3777 2.5423,0 4.7895,-1.1319 4.186,-2.1085 -0.3056,-0.4944 -1.653,-0.6234 -2.9943,-0.2868 -1.9615,0.4923 -2.4387,0.2299 -2.4387,-1.3413 0,-3.4737 -3.3335,-5.4471 -8.7186,-5.1612 -2.688,0.1426 -5.3949,-0.054 -6.0153,-0.4377 -1.7041,-1.0532 -2.2475,0.5622 -2.1183,6.2965 0.097,4.2968 0.4855,5.3523 2.2347,6.0686 2.7688,1.1339 10.684,0.104 12.6962,-1.6519 z m 7.1358,-9.9133 c -0.6582,-6.8346 -3.2145,-7.0987 -3.2145,-0.3321 0,3.2932 0.3144,3.9499 1.75,3.6555 1.2775,-0.262 1.6729,-1.1594 1.4645,-3.3234 z m -11.2145,-4.4644 c 0,-0.55 -0.45,-1 -1,-1 -0.55,0 -1,0.45 -1,1 0,0.55 0.45,1 1,1 0.55,0 1,-0.45 1,-1 z m -243.07691,4.0769 c -6.1552,-6.1552 -1.8891,-16.0769 6.9127,-16.0769 l 3.9897,0 21.3373,-29.25 c 25.9025,-35.5083 25.2653,-33.3624 13.1181,-44.1781 -4.2795,-3.8104 -11.9818,-11.1507 -17.1162,-16.3118 l -9.3354,-9.3838 0.6383,-5.1882 c 0.351,-2.8534 0.8629,-6.3695 1.1374,-7.8135 0.4036,-2.1227 11.0078,-10.2432 55.3845,-42.4124 l 54.8854,-39.7871 -2.0604,-4.0875 c -1.1332,-2.2482 -2.1532,-4.1983 -2.2667,-4.3336 -0.1136,-0.1353 -18.5888,5.514 -41.0561,12.554 l -40.8496,12.8 -1.1189,3.3231 c -3.4746,10.3195 -18.5232,9.1404 -18.5232,-1.4514 0,-4.7055 1.3568,-7.0957 5.1373,-9.0507 3.531,-1.826 7.3321,-1.2419 10.3723,1.5936 2.1931,2.0454 -2.5961,3.3819 70.3073,-19.6195 l 14.317,-4.5171 -0.6416,-3.193 c -1.4914,-7.4223 6.3043,-6.693 -71.5469,-6.693 l -69.9199,0 0.5655,7.75 c 0.8342,11.4315 4.2496,31.4761 6.9526,40.8036 3.5302,12.1821 7.7747,22.3431 15.9715,38.2344 l 7.3697,14.288 -1.1054,8.9782 -1.1054,8.9783 -11.839,9.9837 c -6.5114,5.4911 -12.4417,9.9838 -13.1785,9.9838 -1.7595,0 -13.1722,-16.2775 -20.1085,-28.6797 -3.0207,-5.4012 -7.7717,-15.6703 -10.5578,-22.8203 -6.9905,-17.9399 -6.7798,-17.5 -8.3799,-17.5 -2.3241,0 -6.6103,-5.8752 -6.6103,-9.061 0,-3.3836 4.4686,-8.7468 7.5,-9.0014 4.6218,-0.3881 6.7259,0.1974 9.0455,2.5169 3.433,3.4331 3.4114,9.6795 -0.045,13.1364 -1.375,1.375 -2.5,2.964 -2.5,3.531 0,2.2814 9.422,24.9532 13.9421,33.5483 4.7695,9.0694 15.278,25.4376 17.5322,27.3084 0.8109,0.673 4.1107,-1.4821 10.8456,-7.0832 5.3241,-4.4278 9.6801,-8.267 9.6801,-8.5314 0,-0.2645 0.4744,-3.5385 1.0542,-7.2756 l 1.0543,-6.7947 -6.9543,-13.3969 c -3.8248,-7.3682 -8.5813,-17.5203 -10.57,-22.5602 -7.5078,-19.027 -12.9332,-46.3555 -12.3784,-62.3521 l 0.2937,-8.4845 71.6571,-0.2566 71.657,-0.2566 0.6996,-5.0867 c 0.3848,-2.7977 0.3141,-5.4526 -0.157,-5.8997 -0.4712,-0.4472 -49.1624,-16.4108 -108.2027,-35.4748 -104.2121,-33.6499 -107.4039,-34.6094 -109.3299,-32.8664 -3.2028,2.8985 -9.519113,2.3966 -12.430213,-0.9877 -5.4753,-6.3654 -1.6452,-15.6715 6.449913,-15.6715 4.8877,0 7.8115,2.2738 9.5849,7.4539 l 1.3536,3.9538 107.3589,34.7023 107.3588,34.7023 2.3192,-4.5046 c 1.2756,-2.4776 2.1144,-5.0383 1.8641,-5.6905 -0.2502,-0.6522 -16.8841,-13.0579 -36.964,-27.5681 l -36.509,-26.3822 -2.5388,-16.0835 c -1.3964,-8.8459 -3.5359,-22.4753 -4.7545,-30.2877 -2.1579,-13.8338 -2.2883,-14.2295 -5.0022,-15.1756 -2.7286,-0.9512 -5.9148,-5.5426 -5.9148,-8.5234 0,-2.9166 2.4222,-6.7637 5.145,-8.1717 4.0592,-2.0991 7.3188,-1.7471 10.7783,1.1639 2.5617,2.1556 3.0767,3.3123 3.0767,6.9111 0,3.591 -0.5162,4.7566 -3.0513,6.8897 l -3.0512,2.5675 4.5988,29.2356 c 2.5294,16.0796 4.6899,29.2977 4.8013,29.3736 0.1113,0.076 16.5522,11.9202 36.5352,26.3206 l 36.3329,26.1826 4.0209,-4.0209 4.02091,-4.021 -3.42331,-4.7638 c -1.8829,-2.6202 -15.3779,-21.2356 -29.989,-41.3677 l -26.5656,-36.6038 3.3763,-19.7561 c 1.857,-10.8658 3.0731,-20.2691 2.7024,-20.8962 -0.5492,-0.929 -24.9496,-34.4212 -25.8208,-35.4418 -0.1417,-0.1659 -3.2027,-0.7897 -6.8023,-1.3862 -6.2738,-1.0396 -6.7364,-0.9722 -11.1741,1.6285 -7.2397,4.2427 -23.5416,16.8235 -31.4631,24.2812 l -7.1996,6.7782 3.0931,18.5 c 4.0458,24.1979 3.9999,24 5.5612,24 0.7391,0 2.7284,1.165 4.4206,2.5889 2.4885,2.0939 3.0767,3.3513 3.0767,6.5769 0,4.8458 -4.2978,9.8342 -8.4727,9.8342 -9.1684,0 -13.5403,-10.078 -7.1458,-16.4724 l 2.3001,-2.3002 -3.3039,-19.8637 c -1.8171,-10.925 -3.3205,-21.0496 -3.3408,-22.4991 -0.028,-1.9833 1.6102,-4.1761 6.6207,-8.8632 9.0906,-8.5038 20.1505,-17.2187 30.5108,-24.0417 l 8.6683,-5.7088 8.3317,1.3546 c 4.5824,0.745 8.4087,1.3635 8.5029,1.3745 0.094,0.011 6.601,8.8761 14.4596,19.7002 l 14.2882,19.6803 -3.3326,19.7162 c -1.8605,11.0076 -2.9788,20.3141 -2.5316,21.0697 1.2409,2.0972 55.60401,77.1812 56.97121,78.6862 0.9981,1.0987 2.1671,0.8355 6.6607,-1.5 l 5.4502,-2.8326 -17.88151,-56 -17.8814,-56 2.1383,-10.87 2.1382,-10.87 -2.2286,-4.201 c -5.3686,-10.1199 5.33,-19.2665 14.0013,-11.9701 2.5617,2.1556 3.0767,3.3123 3.0767,6.9111 0,3.5988 -0.515,4.7555 -3.0767,6.9111 -1.6922,1.4239 -4.0742,2.5889 -5.2932,2.5889 -2.007,0 -2.4192,0.9758 -4.3619,10.3268 l -2.1454,10.3267 17.78641,55.9233 17.7865,55.9232 3.4021,-0.3087 c 1.8712,-0.1698 4.1897,-0.5376 5.1522,-0.8174 1.6533,-0.4806 1.75,-6.725 1.75,-112.9814 l 0,-112.4727 -4,-3.8051 c -4.6624,-4.4353 -5.2341,-8.2762 -1.8687,-12.5546 2.9403,-3.738 6.3629,-4.8823 10.5096,-3.5137 4.2958,1.4177 6.3591,4.4098 6.3591,9.2214 0,3.7653 -3.3869,8.7321 -5.9545,8.7321 -1.2247,0 -1.5192,226.5936 -0.2955,227.3387 0.4125,0.2511 2.9766,0.6152 5.6981,0.809 l 4.948,0.3524 14.3997,-43.5 14.3997,-43.5 -5.6051,-10.6514 -5.6051,-10.6514 4.0546,-13.3486 c 2.23,-7.3417 4.7614,-15.537 5.6253,-18.2118 l 1.5707,-4.8632 4.741,0.6289 c 10.1482,1.3462 28.047,8.5312 48.3845,19.4225 8.5511,4.5794 12.1652,6.0484 12.95,5.2636 0.5987,-0.5988 2.9622,-1.0886 5.2522,-1.0886 10.8165,0 13.3147,14.5748 3.0773,17.9535 -6.1035,2.0143 -11.5906,-1.9512 -12.5785,-9.0904 -0.5589,-4.0399 -0.6364,-4.1044 -12.5624,-10.4497 -6.6,-3.5115 -15.825,-7.9976 -20.5,-9.9691 -8.4414,-3.5598 -24.9856,-8.7921 -25.6618,-8.1159 -0.1942,0.1942 -2.4435,7.2427 -4.9986,15.6632 l -4.6455,15.3101 5.1529,10.3612 c 2.8342,5.6986 5.153,11.0731 5.153,11.9432 0,0.8702 -6.3,20.7501 -14,44.1776 -7.7,23.4274 -14,43.1759 -14,43.8855 0,0.7096 1.7684,2.1923 3.9299,3.295 l 3.9298,2.0049 28.5041,-39.4633 28.5041,-39.4633 -1.5348,-3.0767 c -4.8871,-9.7963 7.0498,-18.7367 14.7438,-11.0427 2.1641,2.1641 2.9231,3.8718 2.9231,6.5769 0,4.8903 -4.4255,9.4876 -9.1731,9.5291 -3.2192,0.028 -4.1685,1.1971 -29.3269,36.115 -14.3,19.8474 -27.0926,37.6208 -28.4279,39.4966 l -2.428,3.4105 3.8809,3.9744 c 2.1345,2.1859 4.2625,3.9744 4.7289,3.9744 1.6238,0 131.7462,-95.1054 131.7548,-96.2985 0,-0.6608 0.6662,-6.7782 1.4699,-13.5941 0.8037,-6.8159 1.1373,-12.9682 0.7413,-13.6719 -2.0651,-3.6699 -13.6391,-15.5721 -21.5249,-22.1355 -7.0863,-5.8979 -9.4093,-7.3187 -11.0805,-6.7769 -6.2044,2.0113 -8.4995,1.7458 -11.5854,-1.3402 -6.3651,-6.3651 -2.4394,-16.1829 6.4709,-16.1829 1.4473,0 3.4972,0.4633 4.5554,1.0296 2.5531,1.3664 5.1459,6.5262 4.7599,9.4722 -0.2511,1.9162 1.4995,3.8699 9.3066,10.3864 9.1802,7.6626 16.2039,14.763 21.6484,21.8848 l 2.5021,3.2729 -1.6989,15.174 c -0.9344,8.3457 -1.9252,15.5402 -2.2018,15.9876 -0.2765,0.4475 -30.0608,22.2588 -66.1873,48.4696 -36.1264,26.2108 -65.8818,47.8159 -66.123,48.0114 -0.2412,0.1954 0.5222,2.3331 1.6966,4.7503 l 2.1353,4.395 13.8033,-4.3971 c 7.5919,-2.4184 55.4283,-17.8399 106.3032,-34.27 l 92.4998,-29.8728 0.5963,-3.6687 c 0.8942,-5.5014 4.3311,-8.6252 9.4895,-8.6252 3.5034,0 4.685,0.5326 6.8257,3.0767 4.088,4.8583 2.8844,11.6849 -2.5561,14.4983 -3.5134,1.8168 -5.241,1.7939 -8.9395,-0.1187 -3.1666,-1.6375 -9.3705,0.2841 -186.0881,57.6412 l -30.6726,9.9554 0.9226,3.217 c 0.5074,1.7693 0.9226,4.6795 0.9226,6.4671 l 0,3.2503 74.75,0.2563 74.75,0.2564 0.3178,6.5 c 0.8711,17.8186 -5.3802,47.4453 -14.5592,69 -4.1506,9.7465 -12.3071,25.8953 -14.5083,28.7243 -0.8758,1.1256 -0.2984,11.3244 0.8767,15.4868 0.2657,0.9411 4.7643,5.3941 9.9969,9.8955 10.9247,9.398 9.2661,9.6866 17.8534,-3.1066 6.8012,-10.1325 17.1776,-31.0849 21.4126,-43.2372 l 3.0448,-8.7372 -2.4673,-2.4674 c -1.7122,-1.7121 -2.4674,-3.5726 -2.4674,-6.0785 0,-4.9065 1.5217,-7.3819 5.5805,-9.0778 2.9053,-1.2139 3.9082,-1.2245 6.6695,-0.07 4.5054,1.8833 6.2045,4.2763 6.2045,8.7383 0,4.2551 -3.0513,8.361 -6.9387,9.3367 -1.434,0.3599 -2.5499,1.6106 -2.9753,3.3346 -4.6406,18.8079 -30.4687,65.8393 -35.7065,65.0195 -0.9163,-0.1434 -6.8172,-4.6205 -13.1132,-9.9491 l -11.4471,-9.6882 -1.236,-9.3389 -1.2361,-9.3389 3.7201,-6.3473 c 14.9064,-25.434 24.6381,-56.2707 26.146,-82.8484 l 0.6382,-11.25 -72.5394,0 -72.5395,0 -0.495,3.25 c -0.2722,1.7875 -0.3859,3.3749 -0.2527,3.5275 0.537,0.615 89.5182,28.2225 90.9634,28.2225 0.8565,0 1.5573,-0.3777 1.5573,-0.8395 0,-1.1919 4.653,-3.1605 7.4703,-3.1605 1.3069,0 3.7608,1.165 5.453,2.5889 2.543,2.1399 3.0712,3.3107 3.0449,6.75 -0.034,4.4943 -1.2276,6.6737 -4.6525,8.4978 -5.4225,2.888 -11.6201,0.217 -13.4177,-5.7826 l -1.116,-3.7252 -44.141,-13.8115 c -24.2776,-7.5963 -44.7151,-13.8578 -45.4169,-13.9144 -0.7017,-0.057 -2.1358,1.7952 -3.1868,4.1152 l -1.911,4.2182 56.8383,41.1868 56.8384,41.1869 1.1018,7.4079 1.1018,7.4079 -4.5976,5.3254 c -4.302,4.9829 -25.0457,24.16 -27.89,25.7836 -0.7081,0.4042 -1.5849,2.7191 -1.9486,5.1443 l -0.6612,4.4094 21.373,29.3545 21.3731,29.3544 4.6221,0.6612 c 5.6994,0.8152 6.3412,1.2031 8.3182,5.0262 3.3223,6.4246 -1.1218,13.8151 -8.3074,13.8151 -6.7142,0 -11.4732,-8.0487 -8.2833,-14.0092 0.8437,-1.5764 -2.5267,-6.7315 -21,-32.1197 -19.3784,-26.6321 -21.9908,-30.6673 -21.8866,-33.8065 0.2367,-7.1297 1.2431,-8.7478 10.3817,-16.6903 4.95,-4.3022 12.3191,-11.1684 16.3757,-15.2583 l 7.3757,-7.4362 -0.628,-6.0089 c -0.3454,-3.3049 -0.7395,-6.0847 -0.8757,-6.1775 -0.1362,-0.093 -24.9742,-18.065 -55.1955,-39.9383 -30.2213,-21.8733 -55.4312,-39.9552 -56.022,-40.1819 -0.5908,-0.2267 -2.697,1.5293 -4.6805,3.9022 l -3.6063,4.3144 40.3664,55.4551 40.3664,55.4551 -0.5601,6 c -0.308,3.3 -0.7566,6.7044 -0.9968,7.5652 -0.2402,0.8609 -4.9186,4.2359 -10.3965,7.5 -6.6974,3.9909 -9.97,6.5296 -9.9913,7.7506 -0.089,5.102 -4.0172,8.609 -9.6926,8.6524 -10.4297,0.08 -12.7511,-14.6969 -2.8236,-17.9732 3.0577,-1.0092 4.1204,-0.8895 7.6624,0.863 4.0541,2.0058 4.1636,2.0079 7.7174,0.1488 1.9827,-1.0372 5.8549,-3.3805 8.6049,-5.2074 4.643,-3.0843 5.0434,-3.6777 5.6079,-8.3104 0.3344,-2.7439 0.3014,-5.439 -0.073,-5.989 -0.3746,-0.55 -18.3567,-25.4045 -39.9602,-55.2322 l -39.2791,-54.2322 -4.6477,2.6602 c -2.5562,1.4631 -4.7264,2.6962 -4.8225,2.7404 -0.096,0.044 2.8324,9.9588 6.5079,22.0326 l 6.6827,21.9525 3.369,0.689 c 11.4745,2.3468 10.9343,18.8897 -0.617,18.8897 -4.8651,0 -7.806,-2.07 -9.2781,-6.5306 -0.9948,-3.0144 -0.8805,-4.0667 0.7899,-7.2714 l 1.953,-3.747 -6.3754,-20.9755 c -3.5065,-11.5365 -6.5688,-21.5031 -6.8052,-22.1479 -0.2364,-0.6448 -1.3574,-0.9298 -2.491,-0.6334 -2.0485,0.5357 -2.0611,0.8606 -2.0521,52.6724 l 0.01,52.1334 13.5324,14.7252 13.5324,14.7251 4.2536,-0.583 c 3.6366,-0.4984 4.7185,-0.1918 7.4585,2.1137 2.6963,2.2688 3.2049,3.3828 3.2049,7.019 0,3.5988 -0.515,4.7555 -3.0767,6.9111 -1.6922,1.4239 -4.1896,2.5889 -5.5497,2.5889 -6.3832,0 -11.2274,-5.8364 -9.8917,-11.9177 0.6264,-2.8519 -0.2412,-4.0404 -13.3709,-18.3161 l -14.0416,-15.2662 -0.035,-52.75 c -0.031,-46.2066 -0.2212,-52.75 -1.5351,-52.75 -1.3188,0 -1.5,8.3305 -1.5,68.9743 l 0,68.9743 2.8053,1.4507 c 2.7656,1.4302 5.1947,5.2633 5.1947,8.1974 0,2.7663 -2.8235,7.0018 -5.4721,8.2086 -4.0423,1.8418 -7.0883,1.4355 -10.4512,-1.3942 -2.571,-2.1634 -3.0767,-3.3069 -3.0767,-6.9574 0,-3.7939 0.4603,-4.7357 3.5,-7.1611 l 3.4997,-2.7926 1e-4,-68.25 c 0,-60 -0.1813,-68.25 -1.5,-68.25 -1.3142,0 -1.5,6.4736 -1.5,52.2621 l 0,52.2621 -15.4165,15.3924 c -14.27561,14.2533 -15.34651,15.5767 -14.47001,17.882 1.38471,3.642 -0.6546,8.9127 -4.1471,10.7188 -4.1693,2.156 -7.4031,1.8275 -10.8897,-1.1063 -2.5617,-2.1556 -3.0767,-3.3123 -3.0767,-6.9111 0,-3.6362 0.5086,-4.7502 3.2049,-7.019 2.7053,-2.2763 3.8445,-2.609 7.3079,-2.1343 l 4.103,0.5624 14.69211,-14.7167 14.6921,-14.7166 0,-51.8112 c 0,-48.079 -0.1216,-51.7878 -1.6878,-51.4862 -1.2589,0.2424 -3.2586,5.5204 -7.8679,20.7665 l -6.18,20.4414 1.8641,3.0568 c 5.2406,8.5938 -2.6262,18.2617 -11.45181,14.0737 -5.0934,-2.417 -6.9464,-7.6357 -4.5661,-12.8599 1.0637,-2.3347 2.3137,-3.1887 7.92021,-5.411 2.2564,-0.8944 3.1542,-3.1029 8.2835,-20.3745 3.1641,-10.6543 5.7378,-19.8511 5.7194,-20.4374 -0.018,-0.5863 -2.5659,-2.1155 -5.6608,-3.3983 -4.6696,-1.9355 -5.7654,-2.0944 -6.439,-0.9341 -0.4465,0.7691 -17.94561,24.9799 -38.88691,53.8017 l -38.0751,52.4033 0.6732,5.0967 c 0.7372,5.5822 0.7603,5.6071 10.7704,11.623 l 6.9154,4.1561 3.8544,-2.1663 c 2.6748,-1.5034 4.728,-1.9745 6.709,-1.5394 7.4141,1.6285 10.3016,11.3776 4.7773,16.1294 -5.7331,4.9315 -14.9961,1.8292 -15.8631,-5.3127 -0.2436,-2.0072 -2.4082,-3.8591 -10.3084,-8.8192 l -10,-6.2785 -0.8875,-6.7628 c -0.6615,-5.0401 -0.563,-7.2939 0.3868,-8.8478 0.7009,-1.1468 18.3128,-25.5687 39.1376,-54.2708 20.8247,-28.7021 37.86311,-52.5709 37.86311,-53.0418 0,-0.4709 -1.92,-2.7405 -4.26671,-5.0436 l -4.2667,-4.1874 -52.4833,38.0631 c -28.8658,20.9347 -53.3032,38.6529 -54.3052,39.3738 -1.1874,0.8541 -2.0935,3.3115 -2.6015,7.0549 l -0.7795,5.7441 6.2945,6.6113 c 3.462,3.6362 10.7801,10.4363 16.2626,15.1113 5.4824,4.675 10.2336,9.1008 10.5582,9.8351 0.3246,0.7343 0.8369,3.6593 1.1386,6.5 l 0.5484,5.1649 -22.1088,30.2052 c -19.12,26.1217 -21.9657,30.4727 -21.0498,32.1842 3.2992,6.1646 -1.4541,14.1106 -8.4408,14.1106 -2.7051,0 -4.4128,-0.759 -6.5769,-2.9231 z m 10.6368,-3.528 c 3.3163,-5.0613 -1.9796,-10.4696 -7.0189,-7.1677 -2.9235,1.9155 -3.2895,5.1342 -0.886,7.79 2.3429,2.589 5.9889,2.3019 7.9049,-0.6223 z m 335.44011,0.4511 c 1.1,-1.1 2,-2.675 2,-3.5 0,-1.8315 -3.5201,-5.5 -5.2775,-5.5 -2.3435,0 -5.7225,3.087 -5.7225,5.2279 0,2.6872 2.7551,5.7721 5.155,5.7721 1.0147,0 2.745,-0.9 3.845,-2 z m -168.5661,-34.328 c 3.6885,-2.6971 1.3114,-9.672 -3.2963,-9.672 -2.2117,0 -5.1376,3.0334 -5.1376,5.3262 0,2.5143 2.7642,5.6738 4.9639,5.6738 0.9096,0 2.4711,-0.5976 3.47,-1.328 z m -44.04631,-5.9662 c 1.2409,-0.9073 1.6716,-2.3215 1.4411,-4.7319 -0.2579,-2.6978 -0.9141,-3.6424 -3.0484,-4.3883 -5.1661,-1.8053 -8.8875,4.4285 -5.1253,8.5856 1.9457,2.15 4.2709,2.3347 6.7326,0.5346 z m 85.78371,-0.3608 c 2.2742,-2.0582 2.3449,-5.1171 0.1737,-7.5163 -3.2022,-3.5384 -8.595,-1.235 -8.595,3.6713 0,4.8088 4.8895,7.0412 8.4213,3.845 z m -119.62331,-14.778 c 1.7901,-2.732 0.8241,-5.7623 -2.3842,-7.4794 -2.651,-1.4187 -6.5961,0.8798 -6.9681,4.0598 -0.6384,5.4575 6.3442,8.0107 9.3523,3.4196 z m 157.88061,0.8616 c 3.1854,-3.1855 1.0752,-8.4286 -3.3924,-8.4286 -5.2525,0 -7.6796,4.5266 -4.3812,8.1712 2.0311,2.2444 5.6662,2.3647 7.7736,0.2574 z m -47.0339,-76.7279 c 2.6447,-1.9339 1.7618,-6.7708 -1.5764,-8.636 -2.4473,-1.3675 -2.8623,-1.3348 -4.75,0.3734 -5.3584,4.8494 0.5109,12.515 6.3264,8.2626 z m -62.3449,-1.7939 c 1.5075,-2.8166 0.4192,-6.6232 -2.1243,-7.4305 -3.3369,-1.059 -6.83521,0.3159 -7.49531,2.9458 -0.9714,3.8704 1.1153,6.5779 5.06981,6.5779 2.457,0 3.7473,-0.5936 4.5498,-2.0932 z m -192.86781,-33.4068 c 1.7448,-3.8296 -0.28,-7.5 -4.1375,-7.5 -2.0948,0 -3.492,0.7534 -4.6365,2.5 -1.5174,2.3159 -1.5174,2.6841 0,5 1.1445,1.7466 2.5417,2.5 4.6365,2.5 2.2278,0 3.2911,-0.6425 4.1375,-2.5 z m 446.61801,1.3 c 0.66,-0.66 1.2,-2.37 1.2,-3.8 0,-3.3048 -1.6952,-5 -5,-5 -3.3048,0 -5,1.6952 -5,5 0,3.3047 1.6952,5 5,5 1.43,0 3.14,-0.54 3.8,-1.2 z m -363.20801,-21.3 c 1.5174,-2.3159 1.5174,-2.6841 0,-5 -2.8821,-4.3986 -9.592,-2.9096 -9.592,2.1286 0,5.2704 6.7049,7.2775 9.592,2.8714 z m 283.83661,0.9286 c 3.8822,-3.8822 -0.093,-10.6308 -5.2089,-8.843 -2.1343,0.7459 -2.7905,1.6905 -3.0484,4.3883 -0.5043,5.2738 4.6548,8.0571 8.2573,4.4547 z M 107.31427,409.15003 c 0.4183,-3.501 -1.3763,-5.5761 -4.8223,-5.5761 -3.469713,0 -5.237313,2.0769 -4.822313,5.6663 0.7097,6.1378 8.909613,6.0611 9.644613,-0.09 z m 539.61011,-0.9053 c 1.8744,-5.2474 -5.0784,-8.9295 -8.8959,-4.7111 -3.5975,3.9751 0.8129,9.9291 5.9635,8.0508 1.1,-0.4012 2.4196,-1.904 2.9324,-3.3397 z m -429.26111,-21.3258 c 2.2742,-2.0582 2.3449,-5.1171 0.1737,-7.5163 -3.2022,-3.5384 -8.595,-1.235 -8.595,3.6713 0,4.8088 4.8895,7.0412 8.4213,3.845 z m 250.00001,-14 c 1.0058,-0.9102 1.8287,-2.5623 1.8287,-3.6713 0,-2.6021 -2.7908,-5.6737 -5.155,-5.6737 -2.2209,0 -5.845,3.4101 -5.845,5.5 0,2.0155 3.593,5.5 5.6713,5.5 0.9192,0 2.4942,-0.7448 3.5,-1.655 z m -214.00001,-23 c 2.2742,-2.0582 2.3449,-5.1171 0.1737,-7.5163 -3.2022,-3.5384 -8.595,-1.235 -8.595,3.6713 0,4.8088 4.8895,7.0412 8.4213,3.845 z m 238.79351,-9.2793 c 2.1867,-4.0859 -0.024,-8.0657 -4.4795,-8.0657 -2.3266,0 -5.4853,3.2542 -5.4853,5.6511 0,4.036 8.0528,5.9873 9.9648,2.4146 z m -156.79351,-29.7207 c 2.2742,-2.0582 2.3449,-5.1171 0.1737,-7.5163 -3.2022,-3.5384 -8.595,-1.235 -8.595,3.6713 0,4.8088 4.8895,7.0412 8.4213,3.845 z m 176.26261,-1.673 c 3.8125,-2.7878 1.2832,-9.672 -3.5536,-9.672 -4.6305,0 -6.5258,6.734 -2.6578,9.4433 2.7159,1.9023 3.8648,1.9446 6.2114,0.2287 z m -133.2519,-95.1721 c 1.7448,-3.8296 -0.28,-7.5 -4.1375,-7.5 -2.0948,0 -3.492,0.7534 -4.6365,2.5 -1.5174,2.3159 -1.5174,2.6841 0,5 1.1445,1.7466 2.5417,2.5 4.6365,2.5 2.2278,0 3.2911,-0.6425 4.1375,-2.5 z m -92.76421,625.3556 c 5.2224,-2.3795 4.9786,-10.6203 -0.38,-12.8399 -7.9322,-3.2856 -13.6955,8.3847 -6.1623,12.4782 3.2424,1.7619 3.4447,1.7731 6.5423,0.3617 z m 184.88071,-1.6727 c 4.7266,-4.1539 -1.0475,-13.7122 -7.0156,-11.6134 -3.8276,1.3461 -5.9938,5.5069 -4.7333,9.0913 1.7901,5.0901 7.4455,6.3041 11.7489,2.5221 z m -341.1272,-90.8378 c 4.1914,-3.7932 0.924,-12.345 -4.7168,-12.345 -3.1963,0 -7.45451,4.1505 -7.45451,7.266 0,5.5743 7.95551,8.8942 12.17131,5.079 z m 499.272,-0.5675 c 3.4194,-4.8819 0.4985,-11.7775 -4.9888,-11.7775 -3.2764,0 -7.4545,4.1781 -7.4545,7.4545 0,5.9241 9.106,9.0876 12.4433,4.323 z M 38.491957,588.57393 c 4.3282,-4.3282 1.1316,-12 -5,-12 -3.8493,0 -7,3.1507 -7,7 0,3.8493 3.1507,7 7,7 1.6667,0 3.8889,-0.8889 5,-2 z m 681.055923,0.1558 c 4.8099,-3.8948 1.6076,-12.1558 -4.7121,-12.1558 -2.8999,0 -7.3438,4.1267 -7.3438,6.8197 0,1.0508 0.9327,3.0963 2.0726,4.5454 2.482,3.1554 6.6549,3.4859 9.9833,0.7907 z M 38.741957,405.37623 c 2.4518,-2.8355 2.1782,-6.465 -0.7045,-9.3478 -2.9987,-2.9986 -5.4505,-3.1037 -8.9106,-0.3819 -4.4742,3.5194 -3.1787,10.2065 2.3651,12.2079 2.2661,0.8182 5.295,-0.2172 7.25,-2.4782 z m 678.506323,2.1328 c 4.2486,-1.4811 5.9303,-5.7067 3.8625,-9.7053 -2.7021,-5.2253 -9.5326,-5.2309 -12.2325,-0.01 -1.8593,3.5955 -0.5385,7.9122 2.9349,9.5914 1.1983,0.5793 2.2241,1.0838 2.2796,1.121 0.055,0.037 1.4754,-0.4115 3.1555,-0.9972 z m -587.585,-159.5902 c 4.1914,-3.7932 0.924,-12.345 -4.7168,-12.345 -3.1963,0 -7.45451,4.1505 -7.45451,7.266 0,5.5743 7.95551,8.8942 12.17131,5.079 z m 499,0 c 4.1814,-3.7841 0.7797,-12.345 -4.9053,-12.345 -3.1155,0 -7.266,4.2582 -7.266,7.4545 0,5.5309 7.9388,8.7208 12.1713,4.8905 z m -341.11541,-91.1892 c 2.8108,-2.2761 3.0362,-7.2916 0.4558,-10.1429 -2.6982,-2.9815 -7.8459,-2.6748 -10.4391,0.6219 -2.7218,3.4602 -2.6167,5.912 0.3819,8.9106 2.92,2.92 6.4704,3.1457 9.6014,0.6104 z m 182.94411,-0.1558 c 4.3282,-4.3282 1.1316,-12 -5,-12 -6.2334,0 -9.1557,7.0764 -4.8257,11.6855 2.6965,2.8703 7.128,3.0122 9.8257,0.3145 z"
       id="path3000"
       inkscape:connector-curvature="0" />
  </g>
</svg>
