<?xml version="1.0" encoding="UTF-8" standalone="no"?>
<!-- Created with Inkscape (http://www.inkscape.org/) -->

<svg
   xmlns:dc="http://purl.org/dc/elements/1.1/"
   xmlns:cc="http://creativecommons.org/ns#"
   xmlns:rdf="http://www.w3.org/1999/02/22-rdf-syntax-ns#"
   xmlns:svg="http://www.w3.org/2000/svg"
   xmlns="http://www.w3.org/2000/svg"
   xmlns:sodipodi="http://sodipodi.sourceforge.net/DTD/sodipodi-0.dtd"
   xmlns:inkscape="http://www.inkscape.org/namespaces/inkscape"
   width="744.09448819"
   height="1052.3622047"
   id="svg12183"
   version="1.1"
   inkscape:version="0.48.4 r9939"
   sodipodi:docname="ultimo.svg">
  <defs
     id="defs12185" />
  <sodipodi:namedview
     id="base"
     pagecolor="#ffffff"
     bordercolor="#666666"
     borderopacity="1.0"
     inkscape:pageopacity="0.0"
     inkscape:pageshadow="2"
     inkscape:zoom="0.24748737"
     inkscape:cx="-19.771677"
     inkscape:cy="636.53455"
     inkscape:document-units="px"
     inkscape:current-layer="layer1"
     showgrid="false"
     inkscape:window-width="1366"
     inkscape:window-height="715"
     inkscape:window-x="0"
     inkscape:window-y="31"
     inkscape:window-maximized="1" />
  <metadata
     id="metadata12188">
    <rdf:RDF>
      <cc:Work
         rdf:about="">
        <dc:format>image/svg+xml</dc:format>
        <dc:type
           rdf:resource="http://purl.org/dc/dcmitype/StillImage" />
        <dc:title />
      </cc:Work>
    </rdf:RDF>
  </metadata>
  <g
     inkscape:label="Livello 1"
     inkscape:groupmode="layer"
     id="layer1">
    <path
       style="fill:none;stroke:#000000;stroke-width:7.60793066;stroke-linecap:round;stroke-linejoin:round;stroke-miterlimit:4;stroke-opacity:1;stroke-dasharray:none"
       d="m 104.04664,387.28652 215.79546,0 30.74182,23.50845"
       id="path4651-8"
       inkscape:connector-curvature="0"
       sodipodi:nodetypes="ccc" />
    <path
       style="fill:none;stroke:#000000;stroke-width:7.60793066;stroke-linecap:round;stroke-linejoin:round;stroke-miterlimit:4;stroke-opacity:1;stroke-dasharray:none"
       d="m 377.02532,486.0616 115.73387,0 30.74183,-23.50845"
       id="path4651"
       inkscape:connector-curvature="0"
       sodipodi:nodetypes="ccc" />
    <g
       transform="matrix(0.25359769,0,0,0.25359769,239.97367,1804.0864)"
       id="g12139">
      <path
         sodipodi:type="star"
         style="fill:#db244d;fill-opacity:1;stroke:#000000;stroke-width:3;stroke-linecap:round;stroke-miterlimit:4;stroke-opacity:1;stroke-dasharray:none"
         id="path6745-2-5-8"
         sodipodi:sides="7"
         sodipodi:cx="644.28571"
         sodipodi:cy="-268.35211"
         sodipodi:r1="16.660849"
         sodipodi:r2="25.24371"
         sodipodi:arg1="-0.43833656"
         sodipodi:arg2="0.010462391"
         inkscape:flatsided="false"
         inkscape:rounded="0.65"
         inkscape:randomized="0"
         d="m 659.37142,-275.42354 c 3.45643,7.37371 10.24181,-0.80764 10.15661,7.33553 -0.0852,8.14317 -6.69792,-0.17836 -10.30787,7.12142 -3.60995,7.29978 7.0171,7.50382 0.59739,12.51439 -6.4197,5.01057 -4.03663,-5.34785 -11.9946,-3.61889 -7.95796,1.72897 -1.49163,10.16475 -9.41167,8.26966 -7.92005,-1.89509 1.66431,-6.4903 -4.64916,-11.6341 -6.31346,-5.1438 -8.87713,5.17141 -12.33356,-2.2023 -3.45642,-7.37371 6.11201,-2.74542 6.19721,-10.88859 0.0852,-8.14317 -9.57798,-3.7161 -5.96803,-11.01588 3.60996,-7.29977 5.95724,3.06682 12.37695,-1.94375 6.4197,-5.01058 -3.06641,-9.80532 4.89155,-11.53428 7.95797,-1.72896 1.31654,6.56968 9.23659,8.46477 7.92005,1.89509 5.75423,-8.51093 12.0677,-3.36713 6.31346,5.14379 -4.31554,5.12544 -0.85911,12.49915 z"
         inkscape:transform-center-x="-8.012746"
         inkscape:transform-center-y="-7.3514196"
         transform="matrix(-6.9720989,-5.1989729,5.1989729,-6.9720989,7186.5661,-3975.0484)" />
      <path
         transform="matrix(1.6657295,2.0683959,-2.0683959,1.6657295,-601.66098,-10006.864)"
         d="m 1817.1429,518.25507 c 0,18.83685 -15.2703,34.10714 -34.1071,34.10714 -18.8369,0 -34.1072,-15.27029 -34.1072,-34.10714 0,-18.83686 15.2703,-34.10715 34.1072,-34.10715 18.8368,0 34.1071,15.27029 34.1071,34.10715 z"
         sodipodi:ry="34.107143"
         sodipodi:rx="34.107143"
         sodipodi:cy="518.25507"
         sodipodi:cx="1783.0358"
         id="path7877-7-4-0"
         style="fill:#ffffff;fill-opacity:1;stroke:#000000;stroke-width:9.959548;stroke-miterlimit:4;stroke-opacity:1;stroke-dasharray:none"
         sodipodi:type="arc" />
      <path
         inkscape:connector-curvature="0"
         id="path7913-0-3"
         d="m 1259.5651,-5453.7419 37.0818,-38.1116 -35.0216,-83.4339 -147.2969,-15.4507 -7.2103,24.7212 z"
         style="fill:#ffffff;stroke:none" />
      <path
         inkscape:transform-center-y="-152.12267"
         inkscape:transform-center-x="613.24452"
         style="fill:#00ff00;fill-opacity:1;stroke:#000000;stroke-width:15.60076141;stroke-linecap:round;stroke-linejoin:round;stroke-miterlimit:4;stroke-opacity:1;stroke-dasharray:none"
         d="m 1120.9179,-5578.4613 c 91.8444,10.9802 135.5054,41.497 165.9234,94.5482 61.0607,-3.2929 51.9286,-159.7369 -64.3044,-155.7753 31.5906,92.1506 -1.2461,-30.416 -79.7287,-13.2743 67.5807,100.2627 -33.9778,-43.6666 -89.1762,44.232 19.4956,7.258 57.1076,33.5424 1.5689,46.2479 4.2836,49.4451 118.4084,52.0767 13.9866,54.1216 25.1294,61.5507 123.7284,55.4736 36.8686,65.0651 17.9957,52.9347 107.3209,32.6295 157.179,-14.3893 -30.0075,-67.9737 -76.5162,-84.3908 -142.3172,-120.7759 z"
         id="path7881-5-2"
         inkscape:connector-curvature="0"
         sodipodi:nodetypes="cccccccccc" />
    </g>
    <path
       inkscape:connector-curvature="0"
       id="path11983-4"
       style="font-size:346.57815552px;font-style:normal;font-weight:bold;line-height:125%;letter-spacing:0px;word-spacing:0px;fill:#000000;fill-opacity:1;stroke:none;font-family:Sans;-inkscape-font-specification:Sans Bold"
       d="m 123.45126,439.71794 c 3.46183,3e-5 5.93664,-0.6437 7.42442,-1.93119 1.51632,-1.28744 2.27449,-3.40463 2.27454,-6.35154 -5e-5,-2.91822 -0.75822,-5.0068 -2.27454,-6.26571 -1.48778,-1.25881 -3.96259,-1.88824 -7.42442,-1.88829 l -6.95235,0 0,16.43673 6.95235,0 m -6.95235,11.41558 0,24.24738 -16.522562,0 0,-64.07318 25.234452,0 c 8.44005,8e-5 14.61991,1.4163 18.5396,4.24865 3.94819,2.83251 5.92231,7.31006 5.92237,13.43264 -6e-5,4.2344 -1.03003,7.71056 -3.08993,10.42852 -2.0314,2.71804 -5.10702,4.72077 -9.22688,6.00821 2.26018,0.51501 4.27721,1.68805 6.05112,3.51908 1.8024,1.80249 3.61917,4.54908 5.45029,8.23982 l 8.96939,18.19626 -17.59545,0 -7.81066,-15.92172 c -1.57362,-3.20436 -3.17581,-5.39306 -4.80657,-6.5661 -1.60222,-1.17302 -3.748,-1.75954 -6.43736,-1.75956 l -4.67781,0" />
    <path
       inkscape:connector-curvature="0"
       id="path11985-9"
       style="font-size:346.57815552px;font-style:normal;font-weight:bold;line-height:125%;letter-spacing:0px;word-spacing:0px;fill:#000000;fill-opacity:1;stroke:none;font-family:Sans;-inkscape-font-specification:Sans Bold"
       d="m 188.46859,453.75138 c -3.2044,3e-5 -5.62198,0.54364 -7.25275,1.63081 -1.60221,1.0872 -2.4033,2.6894 -2.40329,4.80656 -10e-6,1.94553 0.64372,3.47617 1.93121,4.59197 1.31606,1.08723 3.13283,1.63081 5.4503,1.63081 2.88963,0 5.32152,-1.02998 7.29568,-3.08993 1.97408,-2.08856 2.96114,-4.69212 2.96118,-7.81066 l 0,-1.75956 -7.98233,0 m 23.47491,-5.79362 0,27.42314 -15.49258,0 0,-7.12399 c -2.05999,2.91828 -4.37744,5.04974 -6.95235,6.39444 -2.57497,1.31607 -5.70782,1.97411 -9.39854,1.97411 -4.97824,0 -9.02662,-1.44482 -12.14516,-4.33447 -3.08993,-2.91827 -4.6349,-6.69485 -4.63489,-11.32975 -10e-6,-5.63626 1.9312,-9.77046 5.79362,-12.40265 3.89101,-2.63214 9.98504,-3.94821 18.2821,-3.94827 l 9.05522,0 0,-1.20162 c -4e-5,-2.43187 -0.95849,-4.20571 -2.87535,-5.32157 -1.91694,-1.14436 -4.90673,-1.71657 -8.96939,-1.71663 -3.29023,6e-5 -6.35155,0.32907 -9.18397,0.98708 -2.83245,0.65806 -5.46461,1.64514 -7.89649,2.96119 l 0,-11.71601 c 3.29019,-0.80104 6.5947,-1.40187 9.91353,-1.80245 3.3188,-0.42911 6.63761,-0.64368 9.95645,-0.64373 8.66894,5e-5 14.92033,1.71668 18.75418,5.14988 3.86236,3.40468 5.79357,8.95512 5.79362,16.6513" />
    <path
       inkscape:connector-curvature="0"
       id="path11987-4"
       style="font-size:346.57815552px;font-style:normal;font-weight:bold;line-height:125%;letter-spacing:0px;word-spacing:0px;fill:#000000;fill-opacity:1;stroke:none;font-family:Sans;-inkscape-font-specification:Sans Bold"
       d="m 263.87154,428.81735 0,11.67308 c -3.29025,-1.37326 -6.46601,-2.40325 -9.52729,-3.08994 -3.06136,-0.68661 -5.95101,-1.02993 -8.66898,-1.02999 -2.91829,6e-5 -5.09269,0.37198 -6.52319,1.11583 -1.40194,0.7153 -2.10289,1.83111 -2.10287,3.34742 -2e-5,1.23028 0.52927,2.17442 1.58788,2.83243 1.08718,0.65809 3.01838,1.14446 5.79362,1.45915 l 2.70369,0.38623 c 7.86785,1.00141 13.16079,2.64649 15.87883,4.93532 2.71794,2.28887 4.07694,5.87948 4.07699,10.77184 -5e-5,5.1213 -1.88834,8.96939 -5.66488,11.54435 -3.77662,2.57493 -9.41288,3.86239 -16.90879,3.86239 -3.17579,0 -6.466,-0.25748 -9.87062,-0.77248 -3.37606,-0.48638 -6.85223,-1.23023 -10.42853,-2.23161 l 0,-11.67308 c 3.06132,1.48776 6.19416,2.60356 9.39855,3.34744 3.23296,0.74388 6.50886,1.1158 9.8277,1.1158 3.00407,0 5.2643,-0.41486 6.78069,-1.24455 1.51632,-0.8297 2.2745,-2.05995 2.27453,-3.69076 -3e-5,-1.37328 -0.52933,-2.38897 -1.58788,-3.04703 -1.03001,-0.68661 -3.10427,-1.21592 -6.22278,-1.58787 l -2.70369,-0.34333 c -6.83793,-0.8583 -11.63018,-2.44617 -14.37677,-4.76365 -2.74662,-2.31743 -4.11992,-5.8365 -4.11991,-10.55727 -1e-5,-5.09262 1.74523,-8.8692 5.23572,-11.32976 3.49046,-2.46045 8.84062,-3.69068 16.05048,-3.69073 2.83241,5e-5 5.8079,0.21462 8.92647,0.64373 3.11851,0.42919 6.50885,1.10155 10.17103,2.01704" />
    <path
       inkscape:connector-curvature="0"
       id="path11989-6"
       style="font-size:346.57815552px;font-style:normal;font-weight:bold;line-height:125%;letter-spacing:0px;word-spacing:0px;fill:#000000;fill-opacity:1;stroke:none;font-family:Sans;-inkscape-font-specification:Sans Bold"
       d="m 279.36412,411.30772 27.42315,0 c 8.15395,8e-5 14.40533,1.81683 18.75418,5.4503 4.37734,3.60499 6.56604,8.75488 6.56611,15.44968 -7e-5,6.72348 -2.18877,11.90197 -6.56611,15.53549 -4.34885,3.60495 -10.60023,5.40739 -18.75418,5.40737 l -10.90059,0 0,22.23034 -16.52256,0 0,-64.07318 m 16.52256,11.97349 0,17.89586 9.14105,0 c 3.20434,5e-5 5.67914,-0.77244 7.42442,-2.31745 1.7452,-1.57353 2.61782,-3.79083 2.61786,-6.65192 -4e-5,-2.86101 -0.87266,-5.06402 -2.61786,-6.60904 -1.74528,-1.54491 -4.22008,-2.3174 -7.42442,-2.31745 l -9.14105,0" />
    <path
       inkscape:connector-curvature="0"
       id="path11991-5"
       style="font-size:346.57815552px;font-style:normal;font-weight:bold;line-height:125%;letter-spacing:0px;word-spacing:0px;fill:#000000;fill-opacity:1;stroke:none;font-family:Sans;-inkscape-font-specification:Sans Bold"
       d="m 343.05105,427.31529 15.36383,0 0,48.06561 -15.36383,0 0,-48.06561"
       sodipodi:nodetypes="ccccc" />
    <path
       inkscape:connector-curvature="0"
       id="path11993-5"
       style="font-size:346.57815552px;font-style:normal;font-weight:bold;line-height:125%;letter-spacing:0px;word-spacing:0px;fill:#000000;fill-opacity:1;stroke:none;font-family:Sans;-inkscape-font-specification:Sans Bold"
       d="m 399.614,436.11303 c 2.60351,2e-5 4.57764,-0.57217 5.92237,-1.71663 1.34465,-1.14439 2.01699,-2.83241 2.01704,-5.06407 -5e-5,-2.20295 -0.67239,-3.87667 -2.01704,-5.02113 -1.34473,-1.17299 -3.31886,-1.75949 -5.92237,-1.75956 l -9.14105,0 0,13.56139 9.14105,0 m 0.55789,28.02396 c 3.31878,3e-5 5.8079,-0.70094 7.46734,-2.10286 1.68797,-1.40191 2.53199,-3.51907 2.53204,-6.35153 -5e-5,-2.77519 -0.82977,-4.84947 -2.48911,-6.22278 -1.65946,-1.40189 -4.16288,-2.10286 -7.51027,-2.10288 l -9.69894,0 0,16.78005 9.69894,0 m 15.36384,-23.04574 c 3.54765,1.03001 6.29424,2.9326 8.23982,5.7078 1.94545,2.77522 2.9182,6.17987 2.91827,10.21393 -7e-5,6.17987 -2.08863,10.78616 -6.26569,13.81886 -4.17718,3.03273 -10.52871,4.54906 -19.05459,4.54906 l -27.42317,0 0,-64.07318 24.80531,0 c 8.89783,8e-5 15.33517,1.34476 19.31207,4.03408 4.00542,2.68946 6.00816,6.99532 6.00821,12.91764 -5e-5,3.11859 -0.72963,5.77936 -2.1887,7.98234 -1.4592,2.17442 -3.57636,3.7909 -6.35153,4.84947" />
    <path
       inkscape:connector-curvature="0"
       id="path11995-0"
       style="font-size:346.57815552px;font-style:normal;font-weight:bold;line-height:125%;letter-spacing:0px;word-spacing:0px;fill:#000000;fill-opacity:1;stroke:none;font-family:Sans;-inkscape-font-specification:Sans Bold"
       d="m 463.08633,437.14299 c -3.40467,5e-5 -6.00821,1.2303 -7.81065,3.69076 -1.77387,2.43192 -2.6608,5.95102 -2.66077,10.55727 -3e-5,4.6063 0.8869,8.1397 2.66077,10.60018 1.80244,2.4319 4.40598,3.64785 7.81065,3.64785 3.34739,0 5.90804,-1.21595 7.68193,-3.64785 1.77379,-2.46048 2.66073,-5.99388 2.66078,-10.60018 -5e-5,-4.60625 -0.88699,-8.12535 -2.66078,-10.55727 -1.77389,-2.46046 -4.33454,-3.69071 -7.68193,-3.69076 m 0,-10.98641 c 8.2684,5e-5 14.72006,2.23166 19.35501,6.69485 4.66346,4.46327 6.99519,10.64312 6.99526,18.53959 -7e-5,7.89652 -2.3318,14.07637 -6.99526,18.53959 -4.63495,4.46324 -11.08661,6.69485 -19.35501,6.69485 -8.29705,0 -14.79164,-2.23161 -19.48373,-6.69485 -4.66351,-4.46322 -6.99526,-10.64307 -6.99526,-18.53959 0,-7.89647 2.33175,-14.07632 6.99526,-18.53959 4.69209,-4.46319 11.18668,-6.6948 19.48373,-6.69485" />
    <text
       xml:space="preserve"
       style="font-size:87.89141846px;font-style:normal;font-weight:bold;line-height:125%;letter-spacing:0px;word-spacing:0px;fill:#000000;fill-opacity:1;stroke:none;font-family:Sans;-inkscape-font-specification:Sans Bold"
       x="91.425636"
       y="262.83728"
       id="text7869-9"
       sodipodi:linespacing="125%"><tspan
         sodipodi:role="line"
         id="tspan7871-3"
         x="91.425636"
         y="262.83728">RasPiBo</tspan></text>
    <g
       id="g12145"
       transform="matrix(0.25359769,0,0,0.25359769,239.97367,1809.6368)">
      <path
         transform="matrix(-6.9720989,-5.1989729,5.1989729,-6.9720989,7186.5661,-4835.0484)"
         inkscape:transform-center-y="-7.3514196"
         inkscape:transform-center-x="-8.012746"
         d="m 659.37142,-275.42354 c 3.45643,7.37371 10.24181,-0.80764 10.15661,7.33553 -0.0852,8.14317 -6.69792,-0.17836 -10.30787,7.12142 -3.60995,7.29978 7.0171,7.50382 0.59739,12.51439 -6.4197,5.01057 -4.03663,-5.34785 -11.9946,-3.61889 -7.95796,1.72897 -1.49163,10.16475 -9.41167,8.26966 -7.92005,-1.89509 1.66431,-6.4903 -4.64916,-11.6341 -6.31346,-5.1438 -8.87713,5.17141 -12.33356,-2.2023 -3.45642,-7.37371 6.11201,-2.74542 6.19721,-10.88859 0.0852,-8.14317 -9.57798,-3.7161 -5.96803,-11.01588 3.60996,-7.29977 5.95724,3.06682 12.37695,-1.94375 6.4197,-5.01058 -3.06641,-9.80532 4.89155,-11.53428 7.95797,-1.72896 1.31654,6.56968 9.23659,8.46477 7.92005,1.89509 5.75423,-8.51093 12.0677,-3.36713 6.31346,5.14379 -4.31554,5.12544 -0.85911,12.49915 z"
         inkscape:randomized="0"
         inkscape:rounded="0.65"
         inkscape:flatsided="false"
         sodipodi:arg2="0.010462391"
         sodipodi:arg1="-0.43833656"
         sodipodi:r2="25.24371"
         sodipodi:r1="16.660849"
         sodipodi:cy="-268.35211"
         sodipodi:cx="644.28571"
         sodipodi:sides="7"
         id="path12131"
         style="fill:#db244d;fill-opacity:1;stroke:#000000;stroke-width:3;stroke-linecap:round;stroke-miterlimit:4;stroke-opacity:1;stroke-dasharray:none"
         sodipodi:type="star" />
      <path
         sodipodi:type="arc"
         style="fill:#ffffff;fill-opacity:1;stroke:#000000;stroke-width:9.959548;stroke-miterlimit:4;stroke-opacity:1;stroke-dasharray:none"
         id="path12133"
         sodipodi:cx="1783.0358"
         sodipodi:cy="518.25507"
         sodipodi:rx="34.107143"
         sodipodi:ry="34.107143"
         d="m 1817.1429,518.25507 c 0,18.83685 -15.2703,34.10714 -34.1071,34.10714 -18.8369,0 -34.1072,-15.27029 -34.1072,-34.10714 0,-18.83686 15.2703,-34.10715 34.1072,-34.10715 18.8368,0 34.1071,15.27029 34.1071,34.10715 z"
         transform="matrix(1.6657295,2.0683959,-2.0683959,1.6657295,-601.66098,-10866.864)" />
      <path
         style="fill:#ffffff;stroke:none"
         d="m 1259.5651,-6313.7419 37.0818,-38.1116 -35.0216,-83.4339 -147.2969,-15.4507 -7.2103,24.7212 z"
         id="path12135"
         inkscape:connector-curvature="0" />
      <path
         sodipodi:nodetypes="cccccccccc"
         inkscape:connector-curvature="0"
         id="path12137"
         d="m 1120.9179,-6438.4613 c 91.8444,10.9802 135.5054,41.497 165.9234,94.5482 61.0607,-3.2929 51.9286,-159.7369 -64.3044,-155.7753 31.5906,92.1506 -1.2461,-30.416 -79.7287,-13.2743 67.5807,100.2627 -33.9778,-43.6666 -89.1762,44.232 19.4956,7.258 57.1076,33.5424 1.5689,46.2479 4.2836,49.4451 118.4084,52.0767 13.9866,54.1216 25.1294,61.5507 123.7284,55.4736 36.8686,65.0651 17.9957,52.9347 107.3209,32.6295 157.179,-14.3893 -30.0075,-67.9737 -76.5162,-84.3908 -142.3172,-120.7759 z"
         style="fill:#00ff00;fill-opacity:1;stroke:#000000;stroke-width:15.60076141;stroke-linecap:round;stroke-linejoin:round;stroke-miterlimit:4;stroke-opacity:1;stroke-dasharray:none"
         inkscape:transform-center-x="613.24452"
         inkscape:transform-center-y="-152.12267" />
    </g>
    <path
       transform="matrix(-0.71864762,0,0,0.71864762,393.38303,575.44776)"
       d="m -164.0625,-158.77063 a 13.867188,14.648438 0 1 1 -27.73438,0 13.867188,14.648438 0 1 1 27.73438,0 z"
       sodipodi:ry="14.648438"
       sodipodi:rx="13.867188"
       sodipodi:cy="-158.77063"
       sodipodi:cx="-177.92969"
       id="path7755-3-8-72-8-3-7-7-1"
       style="fill:#ffffff;stroke:#000000;stroke-width:10.43205547;stroke-linecap:round;stroke-linejoin:round;stroke-miterlimit:4;stroke-dasharray:none"
       sodipodi:type="arc" />
    <path
       transform="matrix(-0.71864762,0,0,0.71864762,222.82539,525.00533)"
       d="m -164.0625,-158.77063 a 13.867188,14.648438 0 1 1 -27.73438,0 13.867188,14.648438 0 1 1 27.73438,0 z"
       sodipodi:ry="14.648438"
       sodipodi:rx="13.867188"
       sodipodi:cy="-158.77063"
       sodipodi:cx="-177.92969"
       id="path7755-3-8-72-8-3-7-7-1-5"
       style="fill:#ffffff;stroke:#000000;stroke-width:10.43205547;stroke-linecap:round;stroke-linejoin:round;stroke-miterlimit:4;stroke-dasharray:none"
       sodipodi:type="arc" />
    <path
       sodipodi:nodetypes="ccc"
       inkscape:connector-curvature="0"
       id="path4717"
       d="m 377.02532,703.8678 115.73387,0 30.74183,-23.50846"
       style="fill:none;stroke:#000000;stroke-width:7.60793066;stroke-linecap:round;stroke-linejoin:round;stroke-miterlimit:4;stroke-opacity:1;stroke-dasharray:none" />
    <g
       id="g4719"
       transform="matrix(0.25359769,0,0,0.25359769,239.97367,2021.8926)">
      <path
         transform="matrix(-6.9720989,-5.1989729,5.1989729,-6.9720989,7186.5661,-3975.0484)"
         inkscape:transform-center-y="-7.3514196"
         inkscape:transform-center-x="-8.012746"
         d="m 659.37142,-275.42354 c 3.45643,7.37371 10.24181,-0.80764 10.15661,7.33553 -0.0852,8.14317 -6.69792,-0.17836 -10.30787,7.12142 -3.60995,7.29978 7.0171,7.50382 0.59739,12.51439 -6.4197,5.01057 -4.03663,-5.34785 -11.9946,-3.61889 -7.95796,1.72897 -1.49163,10.16475 -9.41167,8.26966 -7.92005,-1.89509 1.66431,-6.4903 -4.64916,-11.6341 -6.31346,-5.1438 -8.87713,5.17141 -12.33356,-2.2023 -3.45642,-7.37371 6.11201,-2.74542 6.19721,-10.88859 0.0852,-8.14317 -9.57798,-3.7161 -5.96803,-11.01588 3.60996,-7.29977 5.95724,3.06682 12.37695,-1.94375 6.4197,-5.01058 -3.06641,-9.80532 4.89155,-11.53428 7.95797,-1.72896 1.31654,6.56968 9.23659,8.46477 7.92005,1.89509 5.75423,-8.51093 12.0677,-3.36713 6.31346,5.14379 -4.31554,5.12544 -0.85911,12.49915 z"
         inkscape:randomized="0"
         inkscape:rounded="0.65"
         inkscape:flatsided="false"
         sodipodi:arg2="0.010462391"
         sodipodi:arg1="-0.43833656"
         sodipodi:r2="25.24371"
         sodipodi:r1="16.660849"
         sodipodi:cy="-268.35211"
         sodipodi:cx="644.28571"
         sodipodi:sides="7"
         id="path4721"
         style="fill:#db244d;fill-opacity:1;stroke:#000000;stroke-width:3;stroke-linecap:round;stroke-miterlimit:4;stroke-opacity:1;stroke-dasharray:none"
         sodipodi:type="star" />
      <path
         sodipodi:type="arc"
         style="fill:#ffffff;fill-opacity:1;stroke:#000000;stroke-width:9.959548;stroke-miterlimit:4;stroke-opacity:1;stroke-dasharray:none"
         id="path4723"
         sodipodi:cx="1783.0358"
         sodipodi:cy="518.25507"
         sodipodi:rx="34.107143"
         sodipodi:ry="34.107143"
         d="m 1817.1429,518.25507 c 0,18.83685 -15.2703,34.10714 -34.1071,34.10714 -18.8369,0 -34.1072,-15.27029 -34.1072,-34.10714 0,-18.83686 15.2703,-34.10715 34.1072,-34.10715 18.8368,0 34.1071,15.27029 34.1071,34.10715 z"
         transform="matrix(1.6657295,2.0683959,-2.0683959,1.6657295,-601.66098,-10006.864)" />
      <path
         style="fill:#ffffff;stroke:none"
         d="m 1259.5651,-5453.7419 37.0818,-38.1116 -35.0216,-83.4339 -147.2969,-15.4507 -7.2103,24.7212 z"
         id="path4725"
         inkscape:connector-curvature="0" />
      <path
         sodipodi:nodetypes="cccccccccc"
         inkscape:connector-curvature="0"
         id="path4727"
         d="m 1120.9179,-5578.4613 c 91.8444,10.9802 135.5054,41.497 165.9234,94.5482 61.0607,-3.2929 51.9286,-159.7369 -64.3044,-155.7753 31.5906,92.1506 -1.2461,-30.416 -79.7287,-13.2743 67.5807,100.2627 -33.9778,-43.6666 -89.1762,44.232 19.4956,7.258 57.1076,33.5424 1.5689,46.2479 4.2836,49.4451 118.4084,52.0767 13.9866,54.1216 25.1294,61.5507 123.7284,55.4736 36.8686,65.0651 17.9957,52.9347 107.3209,32.6295 157.179,-14.3893 -30.0075,-67.9737 -76.5162,-84.3908 -142.3172,-120.7759 z"
         style="fill:#00ff00;fill-opacity:1;stroke:#000000;stroke-width:15.60076141;stroke-linecap:round;stroke-linejoin:round;stroke-miterlimit:4;stroke-opacity:1;stroke-dasharray:none"
         inkscape:transform-center-x="613.24452"
         inkscape:transform-center-y="-152.12267" />
    </g>
    <path
       d="m 399.614,653.91922 c 2.60351,3e-5 4.57764,-0.57216 5.92237,-1.71662 1.34465,-1.14439 2.01699,-2.83241 2.01704,-5.06407 -5e-5,-2.20295 -0.67239,-3.87667 -2.01704,-5.02113 -1.34473,-1.17299 -3.31886,-1.75949 -5.92237,-1.75957 l -9.14105,0 0,13.56139 9.14105,0 m 0.55789,28.02397 c 3.31878,2e-5 5.8079,-0.70095 7.46734,-2.10286 1.68797,-1.40191 2.53199,-3.51907 2.53204,-6.35153 -5e-5,-2.7752 -0.82977,-4.84947 -2.48911,-6.22278 -1.65946,-1.40189 -4.16288,-2.10286 -7.51027,-2.10288 l -9.69894,0 0,16.78005 9.69894,0 m 15.36384,-23.04574 c 3.54765,1.03001 6.29424,2.9326 8.23982,5.7078 1.94545,2.77522 2.9182,6.17987 2.91827,10.21392 -7e-5,6.17987 -2.08863,10.78617 -6.26569,13.81887 -4.17718,3.03272 -10.52871,4.54906 -19.05459,4.54906 l -27.42317,0 0,-64.07318 24.80531,0 c 8.89783,8e-5 15.33517,1.34475 19.31207,4.03408 4.00542,2.68945 6.00816,6.99532 6.00821,12.91763 -5e-5,3.1186 -0.72963,5.77937 -2.1887,7.98235 -1.4592,2.17442 -3.57636,3.7909 -6.35153,4.84947"
       style="font-size:346.57815552px;font-style:normal;font-weight:bold;line-height:125%;letter-spacing:0px;word-spacing:0px;fill:#000000;fill-opacity:1;stroke:none;font-family:Sans;-inkscape-font-specification:Sans Bold"
       id="path4729"
       inkscape:connector-curvature="0" />
    <path
       d="m 463.08633,654.94919 c -3.40467,5e-5 -6.00821,1.2303 -7.81065,3.69075 -1.77387,2.43193 -2.6608,5.95103 -2.66077,10.55728 -3e-5,4.60629 0.8869,8.1397 2.66077,10.60018 1.80244,2.4319 4.40598,3.64785 7.81065,3.64785 3.34739,0 5.90804,-1.21595 7.68193,-3.64785 1.77379,-2.46048 2.66073,-5.99389 2.66078,-10.60018 -5e-5,-4.60625 -0.88699,-8.12535 -2.66078,-10.55728 -1.77389,-2.46045 -4.33454,-3.6907 -7.68193,-3.69075 m 0,-10.98641 c 8.2684,5e-5 14.72006,2.23166 19.35501,6.69485 4.66346,4.46327 6.99519,10.64311 6.99526,18.53959 -7e-5,7.89652 -2.3318,14.07637 -6.99526,18.53959 -4.63495,4.46324 -11.08661,6.69485 -19.35501,6.69485 -8.29705,0 -14.79164,-2.23161 -19.48373,-6.69485 -4.66351,-4.46322 -6.99526,-10.64307 -6.99526,-18.53959 0,-7.89648 2.33175,-14.07632 6.99526,-18.53959 4.69209,-4.46319 11.18668,-6.6948 19.48373,-6.69485"
       style="font-size:346.57815552px;font-style:normal;font-weight:bold;line-height:125%;letter-spacing:0px;word-spacing:0px;fill:#000000;fill-opacity:1;stroke:none;font-family:Sans;-inkscape-font-specification:Sans Bold"
       id="path4731"
       inkscape:connector-curvature="0" />
    <path
       sodipodi:type="arc"
       style="fill:#ffffff;stroke:#000000;stroke-width:10.43205547;stroke-linecap:round;stroke-linejoin:round;stroke-miterlimit:4;stroke-dasharray:none"
       id="path4733"
       sodipodi:cx="-177.92969"
       sodipodi:cy="-158.77063"
       sodipodi:rx="13.867188"
       sodipodi:ry="14.648438"
       d="m -164.0625,-158.77063 a 13.867188,14.648438 0 1 1 -27.73438,0 13.867188,14.648438 0 1 1 27.73438,0 z"
       transform="matrix(-0.71864762,0,0,0.71864762,393.38303,793.25396)" />
    <text
       xml:space="preserve"
       style="font-size:18.33329582px;font-style:normal;font-weight:normal;line-height:125%;letter-spacing:0px;word-spacing:0px;fill:#000000;fill-opacity:1;stroke:none;font-family:Sans"
       x="407.35934"
       y="974.61688"
       id="text4915"
       sodipodi:linespacing="125%"><tspan
         sodipodi:role="line"
         id="tspan4917"
         x="407.35934"
         y="974.61688">alessio.giuliani@oslesia.com</tspan></text>
    <g
       id="g4982"
       transform="translate(0,-20)">
      <path
         sodipodi:type="star"
         style="fill:#000000;fill-opacity:1;stroke:#000000;stroke-width:3;stroke-linecap:round;stroke-miterlimit:4;stroke-opacity:1;stroke-dasharray:none"
         id="path4936"
         sodipodi:sides="7"
         sodipodi:cx="644.28571"
         sodipodi:cy="-268.35211"
         sodipodi:r1="16.660849"
         sodipodi:r2="25.24371"
         sodipodi:arg1="-0.43833656"
         sodipodi:arg2="0.010462391"
         inkscape:flatsided="false"
         inkscape:rounded="0.65"
         inkscape:randomized="0"
         d="m 659.37142,-275.42354 c 3.45643,7.37371 10.24181,-0.80764 10.15661,7.33553 -0.0852,8.14317 -6.69792,-0.17836 -10.30787,7.12142 -3.60995,7.29978 7.0171,7.50382 0.59739,12.51439 -6.4197,5.01057 -4.03663,-5.34785 -11.9946,-3.61889 -7.95796,1.72897 -1.49163,10.16475 -9.41167,8.26966 -7.92005,-1.89509 1.66431,-6.4903 -4.64916,-11.6341 -6.31346,-5.1438 -8.87713,5.17141 -12.33356,-2.2023 -3.45642,-7.37371 6.11201,-2.74542 6.19721,-10.88859 0.0852,-8.14317 -9.57798,-3.7161 -5.96803,-11.01588 3.60996,-7.29977 5.95724,3.06682 12.37695,-1.94375 6.4197,-5.01058 -3.06641,-9.80532 4.89155,-11.53428 7.95797,-1.72896 1.31654,6.56968 9.23659,8.46477 7.92005,1.89509 5.75423,-8.51093 12.0677,-3.36713 6.31346,5.14379 -4.31554,5.12544 -0.85911,12.49915 z"
         inkscape:transform-center-x="-8.012746"
         inkscape:transform-center-y="-7.3514196"
         transform="matrix(-1.7681082,-1.3184475,1.3184475,-1.7681082,1902.4702,1213.8295)" />
      <path
         transform="matrix(0.42242515,0.52454042,-0.52454042,0.42242515,-72.606165,-315.82499)"
         d="m 1817.1429,518.25507 c 0,18.83685 -15.2703,34.10714 -34.1071,34.10714 -18.8369,0 -34.1072,-15.27029 -34.1072,-34.10714 0,-18.83686 15.2703,-34.10715 34.1072,-34.10715 18.8368,0 34.1071,15.27029 34.1071,34.10715 z"
         sodipodi:ry="34.107143"
         sodipodi:rx="34.107143"
         sodipodi:cy="518.25507"
         sodipodi:cx="1783.0358"
         id="path4938"
         style="fill:#ffffff;fill-opacity:1;stroke:#000000;stroke-width:9.959548;stroke-miterlimit:4;stroke-opacity:1;stroke-dasharray:none"
         sodipodi:type="arc" />
      <path
         inkscape:connector-curvature="0"
         id="path4940"
         d="m 399.39647,838.83625 9.40386,-9.66501 -8.8814,-21.15865 -37.35415,-3.91826 -1.82852,6.26924 z"
         style="fill:#ffffff;stroke:none" />
      <path
         inkscape:transform-center-y="-152.12267"
         inkscape:transform-center-x="613.24452"
         style="fill:#000000;fill-opacity:1;stroke:#000000;stroke-width:3.95631695;stroke-linecap:round;stroke-linejoin:round;stroke-miterlimit:4;stroke-opacity:1;stroke-dasharray:none"
         d="m 364.23586,807.2077 c 23.29153,2.78455 34.36386,10.52354 42.07779,23.97721 15.48485,-0.83508 13.16897,-40.50891 -16.30745,-39.50426 8.01131,23.36918 -0.316,-7.71343 -20.21901,-3.36633 17.13831,25.42639 -8.61669,-11.07375 -22.61488,11.21713 4.94404,1.84061 14.48236,8.50628 0.39787,11.72836 1.08631,12.53916 30.0281,13.20653 3.54697,13.72511 6.37276,15.60912 31.37724,14.06798 9.34979,16.50036 4.56367,13.42412 27.21633,8.27477 39.86023,-3.64909 -7.60983,-17.23797 -19.40433,-21.40131 -36.09131,-30.62849 z"
         id="path4942"
         inkscape:connector-curvature="0"
         sodipodi:nodetypes="cccccccccc" />
    </g>
    <g
       id="g4976"
       transform="translate(0,-20)">
      <path
         transform="matrix(-1.7681082,-1.3184475,1.3184475,-1.7681082,2062.4702,1213.8295)"
         inkscape:transform-center-y="-7.3514196"
         inkscape:transform-center-x="-8.012746"
         d="m 659.37142,-275.42354 c 3.45643,7.37371 10.24181,-0.80764 10.15661,7.33553 -0.0852,8.14317 -6.69792,-0.17836 -10.30787,7.12142 -3.60995,7.29978 7.0171,7.50382 0.59739,12.51439 -6.4197,5.01057 -4.03663,-5.34785 -11.9946,-3.61889 -7.95796,1.72897 -1.49163,10.16475 -9.41167,8.26966 -7.92005,-1.89509 1.66431,-6.4903 -4.64916,-11.6341 -6.31346,-5.1438 -8.87713,5.17141 -12.33356,-2.2023 -3.45642,-7.37371 6.11201,-2.74542 6.19721,-10.88859 0.0852,-8.14317 -9.57798,-3.7161 -5.96803,-11.01588 3.60996,-7.29977 5.95724,3.06682 12.37695,-1.94375 6.4197,-5.01058 -3.06641,-9.80532 4.89155,-11.53428 7.95797,-1.72896 1.31654,6.56968 9.23659,8.46477 7.92005,1.89509 5.75423,-8.51093 12.0677,-3.36713 6.31346,5.14379 -4.31554,5.12544 -0.85911,12.49915 z"
         inkscape:randomized="0"
         inkscape:rounded="0.65"
         inkscape:flatsided="false"
         sodipodi:arg2="0.010462391"
         sodipodi:arg1="-0.43833656"
         sodipodi:r2="25.24371"
         sodipodi:r1="16.660849"
         sodipodi:cy="-268.35211"
         sodipodi:cx="644.28571"
         sodipodi:sides="7"
         id="path4946"
         style="fill:none;stroke:#000000;stroke-width:3;stroke-linecap:round;stroke-miterlimit:4;stroke-opacity:1;stroke-dasharray:none"
         sodipodi:type="star" />
      <path
         sodipodi:type="arc"
         style="fill:#ffffff;fill-opacity:1;stroke:#000000;stroke-width:9.959548;stroke-miterlimit:4;stroke-opacity:1;stroke-dasharray:none"
         id="path4948"
         sodipodi:cx="1783.0358"
         sodipodi:cy="518.25507"
         sodipodi:rx="34.107143"
         sodipodi:ry="34.107143"
         d="m 1817.1429,518.25507 c 0,18.83685 -15.2703,34.10714 -34.1071,34.10714 -18.8369,0 -34.1072,-15.27029 -34.1072,-34.10714 0,-18.83686 15.2703,-34.10715 34.1072,-34.10715 18.8368,0 34.1071,15.27029 34.1071,34.10715 z"
         transform="matrix(0.42242515,0.52454042,-0.52454042,0.42242515,87.393835,-315.82499)" />
      <path
         style="fill:#ffffff;stroke:none"
         d="m 559.39647,838.83625 9.40386,-9.66501 -8.8814,-21.15865 -37.35415,-3.91826 -1.82852,6.26924 z"
         id="path4950"
         inkscape:connector-curvature="0" />
      <path
         sodipodi:nodetypes="cccccccccc"
         inkscape:connector-curvature="0"
         id="path4952"
         d="m 524.23586,807.2077 c 23.29153,2.78455 34.36386,10.52354 42.07779,23.97721 15.48485,-0.83508 13.16897,-40.50891 -16.30745,-39.50426 8.01131,23.36918 -0.316,-7.71343 -20.21901,-3.36633 17.13831,25.42639 -8.61669,-11.07375 -22.61488,11.21713 4.94404,1.84061 14.48236,8.50628 0.39787,11.72836 1.08631,12.53916 30.0281,13.20653 3.54697,13.72511 6.37276,15.60912 31.37724,14.06798 9.34979,16.50036 4.56367,13.42412 27.21633,8.27477 39.86023,-3.64909 -7.60983,-17.23797 -19.40433,-21.40131 -36.09131,-30.62849 z"
         style="fill:#ffffff;fill-opacity:1;stroke:#000000;stroke-width:3.95631695;stroke-linecap:round;stroke-linejoin:round;stroke-miterlimit:4;stroke-opacity:1;stroke-dasharray:none"
         inkscape:transform-center-x="613.24452"
         inkscape:transform-center-y="-152.12267" />
    </g>
    <g
       id="g5010"
       transform="translate(0,-20)">
      <path
         sodipodi:type="star"
         style="fill:#000000;fill-opacity:1;stroke:#000000;stroke-width:3;stroke-linecap:round;stroke-miterlimit:4;stroke-opacity:1;stroke-dasharray:none"
         id="path4964"
         sodipodi:sides="7"
         sodipodi:cx="644.28571"
         sodipodi:cy="-268.35211"
         sodipodi:r1="16.660849"
         sodipodi:r2="25.24371"
         sodipodi:arg1="-0.43833656"
         sodipodi:arg2="0.010462391"
         inkscape:flatsided="false"
         inkscape:rounded="0.65"
         inkscape:randomized="0"
         d="m 659.37142,-275.42354 c 3.45643,7.37371 10.24181,-0.80764 10.15661,7.33553 -0.0852,8.14317 -6.69792,-0.17836 -10.30787,7.12142 -3.60995,7.29978 7.0171,7.50382 0.59739,12.51439 -6.4197,5.01057 -4.03663,-5.34785 -11.9946,-3.61889 -7.95796,1.72897 -1.49163,10.16475 -9.41167,8.26966 -7.92005,-1.89509 1.66431,-6.4903 -4.64916,-11.6341 -6.31346,-5.1438 -8.87713,5.17141 -12.33356,-2.2023 -3.45642,-7.37371 6.11201,-2.74542 6.19721,-10.88859 0.0852,-8.14317 -9.57798,-3.7161 -5.96803,-11.01588 3.60996,-7.29977 5.95724,3.06682 12.37695,-1.94375 6.4197,-5.01058 -3.06641,-9.80532 4.89155,-11.53428 7.95797,-1.72896 1.31654,6.56968 9.23659,8.46477 7.92005,1.89509 5.75423,-8.51093 12.0677,-3.36713 6.31346,5.14379 -4.31554,5.12544 -0.85911,12.49915 z"
         inkscape:transform-center-x="-8.012746"
         inkscape:transform-center-y="-7.3514196"
         transform="matrix(-1.7681082,-1.3184475,1.3184475,-1.7681082,1742.4702,1213.8295)" />
      <path
         transform="matrix(0.42242515,0.52454042,-0.52454042,0.42242515,-232.60616,-315.82499)"
         d="m 1817.1429,518.25507 c 0,18.83685 -15.2703,34.10714 -34.1071,34.10714 -18.8369,0 -34.1072,-15.27029 -34.1072,-34.10714 0,-18.83686 15.2703,-34.10715 34.1072,-34.10715 18.8368,0 34.1071,15.27029 34.1071,34.10715 z"
         sodipodi:ry="34.107143"
         sodipodi:rx="34.107143"
         sodipodi:cy="518.25507"
         sodipodi:cx="1783.0358"
         id="path4966"
         style="fill:#ffffff;fill-opacity:1;stroke:#000000;stroke-width:9.959548;stroke-miterlimit:4;stroke-opacity:1;stroke-dasharray:none"
         sodipodi:type="arc" />
      <path
         inkscape:connector-curvature="0"
         id="path4968"
         d="m 239.39647,838.83625 9.40386,-9.66501 -8.8814,-21.15865 -37.35415,-3.91826 -1.82852,6.26924 z"
         style="fill:#ffffff;stroke:none" />
      <path
         inkscape:transform-center-y="-152.12267"
         inkscape:transform-center-x="613.24452"
         style="fill:#ffffff;fill-opacity:1;stroke:#000000;stroke-width:3.95631695;stroke-linecap:round;stroke-linejoin:round;stroke-miterlimit:4;stroke-opacity:1;stroke-dasharray:none"
         d="m 204.23586,807.2077 c 23.29153,2.78455 34.36386,10.52354 42.07779,23.97721 15.48485,-0.83508 13.16897,-40.50891 -16.30745,-39.50426 8.01131,23.36918 -0.316,-7.71343 -20.21901,-3.36633 17.13831,25.42639 -8.61669,-11.07375 -22.61488,11.21713 4.94404,1.84061 14.48236,8.50628 0.39787,11.72836 1.08631,12.53916 30.0281,13.20653 3.54697,13.72511 6.37276,15.60912 31.37724,14.06798 9.34979,16.50036 4.56367,13.42412 27.21633,8.27477 39.86023,-3.64909 -7.60983,-17.23797 -19.40433,-21.40131 -36.09131,-30.62849 z"
         id="path4970"
         inkscape:connector-curvature="0"
         sodipodi:nodetypes="cccccccccc" />
    </g>
    <text
       xml:space="preserve"
       style="font-size:40px;font-style:normal;font-weight:normal;line-height:125%;letter-spacing:0px;word-spacing:0px;fill:#000000;fill-opacity:1;stroke:none;font-family:Sans"
       x="236.59837"
       y="938.78131"
       id="text4998"
       sodipodi:linespacing="125%"><tspan
         sodipodi:role="line"
         id="tspan5000"
         x="236.59837"
         y="938.78131">1</tspan></text>
    <text
       xml:space="preserve"
       style="font-size:40px;font-style:normal;font-weight:normal;line-height:125%;letter-spacing:0px;word-spacing:0px;fill:#000000;fill-opacity:1;stroke:none;font-family:Sans"
       x="394.3176"
       y="938.78131"
       id="text5002"
       sodipodi:linespacing="125%"><tspan
         sodipodi:role="line"
         id="tspan5004"
         x="394.3176"
         y="938.78131">2</tspan></text>
    <text
       xml:space="preserve"
       style="font-size:40px;font-style:normal;font-weight:normal;line-height:125%;letter-spacing:0px;word-spacing:0px;fill:#000000;fill-opacity:1;stroke:none;font-family:Sans"
       x="553.85858"
       y="938.2149"
       id="text5006"
       sodipodi:linespacing="125%"><tspan
         sodipodi:role="line"
         id="tspan5008"
         x="553.85858"
         y="938.2149">3</tspan></text>
  </g>
</svg>
